<mxfile host="Electron" agent="Mozilla/5.0 (Macintosh; Intel Mac OS X 10_15_7) AppleWebKit/537.36 (KHTML, like Gecko) draw.io/26.0.16 Chrome/132.0.6834.196 Electron/34.2.0 Safari/537.36" version="26.0.16">
  <diagram name="Page-1" id="ZqCd0pRORCUUzhp86Xhz">
    <mxGraphModel dx="1061" dy="2129" grid="0" gridSize="10" guides="1" tooltips="1" connect="1" arrows="1" fold="1" page="0" pageScale="1" pageWidth="827" pageHeight="1169" math="0" shadow="0">
      <root>
        <mxCell id="0" />
        <mxCell id="1" parent="0" />
        <mxCell id="mhMLeF68N3GkuGjCuC4J-3" value="" style="group" parent="1" vertex="1" connectable="0">
          <mxGeometry x="60" y="-1090" width="1060" height="860" as="geometry" />
        </mxCell>
        <mxCell id="mhMLeF68N3GkuGjCuC4J-1" value="" style="group" parent="mhMLeF68N3GkuGjCuC4J-3" vertex="1" connectable="0">
          <mxGeometry y="400" width="1060" height="460" as="geometry" />
        </mxCell>
        <mxCell id="SUd5e0gLXZyZvxVL9Ppd-86" value="" style="rounded=1;whiteSpace=wrap;html=1;sketch=0;fontFamily=Montserrat;fontSource=https%3A%2F%2Ffonts.googleapis.com%2Fcss%3Ffamily%3DMontserrat;fontSize=20;align=center;dashed=1;strokeWidth=4;glass=0;arcSize=15;strokeColor=#ADADAC;fillColor=#D6D6D6;perimeterSpacing=0;" parent="mhMLeF68N3GkuGjCuC4J-1" vertex="1">
          <mxGeometry width="1060" height="460" as="geometry" />
        </mxCell>
        <mxCell id="SUd5e0gLXZyZvxVL9Ppd-6" value="" style="group" parent="mhMLeF68N3GkuGjCuC4J-1" vertex="1" connectable="0">
          <mxGeometry x="260" y="70" width="200" height="80" as="geometry" />
        </mxCell>
        <mxCell id="SUd5e0gLXZyZvxVL9Ppd-7" value="" style="rounded=1;whiteSpace=wrap;html=1;strokeWidth=2;strokeColor=#7C7C7B;gradientDirection=south;arcSize=50;imageHeight=24;perimeterSpacing=10;" parent="SUd5e0gLXZyZvxVL9Ppd-6" vertex="1">
          <mxGeometry width="200" height="80" as="geometry" />
        </mxCell>
        <mxCell id="SUd5e0gLXZyZvxVL9Ppd-8" value="&lt;font face=&quot;Roboto&quot; style=&quot;font-size: 24px&quot;&gt;VM&lt;/font&gt;" style="text;strokeColor=none;fillColor=none;align=center;verticalAlign=middle;rounded=0;sketch=0;fontFamily=Montserrat;fontSource=https%3A%2F%2Ffonts.googleapis.com%2Fcss%3Ffamily%3DMontserrat;fontStyle=1;fontSize=24;spacing=0;html=1;" parent="SUd5e0gLXZyZvxVL9Ppd-6" vertex="1">
          <mxGeometry x="80" y="14" width="110" height="21" as="geometry" />
        </mxCell>
        <mxCell id="SUd5e0gLXZyZvxVL9Ppd-9" value="&lt;span style=&quot;color: rgb(218, 41, 28); font-size: 18px; font-weight: normal;&quot;&gt;&lt;font face=&quot;Roboto&quot;&gt;Server&lt;/font&gt;&lt;/span&gt;" style="text;strokeColor=none;fillColor=none;align=center;verticalAlign=middle;rounded=0;sketch=0;fontFamily=Abel;fontSource=https%3A%2F%2Ffonts.googleapis.com%2Fcss%3Ffamily%3DAbel;fontStyle=1;fontSize=16;spacing=0;html=1;" parent="SUd5e0gLXZyZvxVL9Ppd-6" vertex="1">
          <mxGeometry x="80" y="43" width="110" height="21" as="geometry" />
        </mxCell>
        <mxCell id="SUd5e0gLXZyZvxVL9Ppd-10" value="" style="endArrow=none;html=1;fontSize=20;fontColor=#E42313;strokeColor=#E42313;align=center;rounded=0;" parent="SUd5e0gLXZyZvxVL9Ppd-6" edge="1">
          <mxGeometry width="50" height="50" as="geometry">
            <mxPoint x="80" y="39.75" as="sourcePoint" />
            <mxPoint x="190" y="39.75" as="targetPoint" />
          </mxGeometry>
        </mxCell>
        <mxCell id="SUd5e0gLXZyZvxVL9Ppd-11" value="" style="shape=image;verticalLabelPosition=bottom;verticalAlign=top;imageAspect=0;aspect=fixed;image=data:image/svg+xml,PHN2ZyB4bWxucz0iaHR0cDovL3d3dy53My5vcmcvMjAwMC9zdmciIHZpZXdCb3g9IjAgMCA2Mi4zNjIyIDYyLjM2MjIiIHZlcnNpb249IjEuMSI+JiN4YTsgIDxkZWZzPiYjeGE7ICAgIDxzdHlsZT4mI3hhOyAgICAgIC5jbHMtMSB7JiN4YTsgICAgICAgIGZpbGw6ICNmZmY7JiN4YTsgICAgICB9JiN4YTsmI3hhOyAgICAgIC5jbHMtMiB7JiN4YTsgICAgICAgIGZpbGw6ICNkYTI5MWM7JiN4YTsgICAgICB9JiN4YTsgICAgPC9zdHlsZT4mI3hhOyAgPC9kZWZzPiYjeGE7ICAmI3hhOyAgPGc+JiN4YTsgICAgPGcgaWQ9IkViZW5lXzIiPiYjeGE7ICAgICAgPHBhdGggZD0iTTMxLjMxNDksNjIuMzYyMkMxMy40ODI4LDYyLjM2MjIsMCw0Ny41OTA1LDAsMzEuMzE0OCwwLDEyLjYzMjksMTUuNTU3MSwwLDMxLjA4MDcsMGMxOC42MDE2LDAsMzEuMjgxNSwxNS4zMzk5LDMxLjI4MTUsMzAuOTQ3MiwwLDE5LjA0OTUtMTUuNjU3NSwzMS40MTUtMzEuMDQ3MywzMS40MTVoMFoiIGNsYXNzPSJjbHMtMiIvPiYjeGE7ICAgICAgPGc+JiN4YTsgICAgICAgIDxwYXRoIGQ9Ik00Mi4zMjQyLDQyLjg1MDVoLTIyLjI4NjFjLTIuNzQwNywwLTQuOTcwMi0yLjIyOTUtNC45NzAyLTQuOTcwN3YtMTUuOTc0NmMwLTIuNzQwNywyLjIyOTUtNC45NzAyLDQuOTcwMi00Ljk3MDJoMjIuMjg2MWMyLjc0MDIsMCw0Ljk2OTcsMi4yMjk1LDQuOTY5Nyw0Ljk3MDJ2MTUuOTc0NmMwLDIuNzQxMi0yLjIyOTUsNC45NzA3LTQuOTY5Nyw0Ljk3MDdaTTIwLjAzODEsMTguOTM0OWMtMS42Mzc3LDAtMi45NzAyLDEuMzMyNS0yLjk3MDIsMi45NzAydjE1Ljk3NDZjMCwxLjYzNzcsMS4zMzI1LDIuOTcwNywyLjk3MDIsMi45NzA3aDIyLjI4NjFjMS42Mzc3LDAsMi45Njk3LTEuMzMzLDIuOTY5Ny0yLjk3MDd2LTE1Ljk3NDZjMC0xLjYzNzctMS4zMzItMi45NzAyLTIuOTY5Ny0yLjk3MDJoLTIyLjI4NjFaIiBjbGFzcz0iY2xzLTEiLz4mI3hhOyAgICAgICAgPHBhdGggZD0iTTM2LjI4NjEsNDYuODQ0NmgtMTAuMjFjLS41NTIyLDAtMS0uNDQ3My0xLTFzLjQ0NzgtMSwxLTFoMTAuMjFjLjU1MjcsMCwxLC40NDczLDEsMXMtLjQ0NzMsMS0xLDFaIiBjbGFzcz0iY2xzLTEiLz4mI3hhOyAgICAgIDwvZz4mI3hhOyAgICA8L2c+JiN4YTsgIDwvZz4mI3hhOzwvc3ZnPg==;" parent="SUd5e0gLXZyZvxVL9Ppd-6" vertex="1">
          <mxGeometry x="10" y="9" width="62" height="62" as="geometry" />
        </mxCell>
        <mxCell id="SUd5e0gLXZyZvxVL9Ppd-19" value="" style="group" parent="mhMLeF68N3GkuGjCuC4J-1" vertex="1" connectable="0">
          <mxGeometry x="500" y="190" width="200" height="80" as="geometry" />
        </mxCell>
        <mxCell id="SUd5e0gLXZyZvxVL9Ppd-20" value="" style="rounded=1;whiteSpace=wrap;html=1;strokeWidth=2;strokeColor=#7C7C7B;gradientDirection=south;arcSize=50;imageHeight=24;perimeterSpacing=10;" parent="SUd5e0gLXZyZvxVL9Ppd-19" vertex="1">
          <mxGeometry width="200" height="80" as="geometry" />
        </mxCell>
        <mxCell id="SUd5e0gLXZyZvxVL9Ppd-21" value="&lt;font face=&quot;Roboto&quot; style=&quot;font-size: 24px&quot;&gt;NLB&lt;/font&gt;" style="text;strokeColor=none;fillColor=none;align=center;verticalAlign=middle;rounded=0;sketch=0;fontFamily=Montserrat;fontSource=https%3A%2F%2Ffonts.googleapis.com%2Fcss%3Ffamily%3DMontserrat;fontStyle=1;fontSize=24;spacing=0;html=1;" parent="SUd5e0gLXZyZvxVL9Ppd-19" vertex="1">
          <mxGeometry x="80" y="25" width="110" height="21" as="geometry" />
        </mxCell>
        <mxCell id="SUd5e0gLXZyZvxVL9Ppd-22" value="" style="endArrow=none;html=1;fontSize=20;fontColor=#E42313;strokeColor=#E42313;align=center;rounded=0;" parent="SUd5e0gLXZyZvxVL9Ppd-19" edge="1">
          <mxGeometry width="50" height="50" as="geometry">
            <mxPoint x="80" y="50.75" as="sourcePoint" />
            <mxPoint x="190" y="50.75" as="targetPoint" />
          </mxGeometry>
        </mxCell>
        <mxCell id="SUd5e0gLXZyZvxVL9Ppd-23" value="" style="shape=image;verticalLabelPosition=bottom;verticalAlign=top;imageAspect=0;aspect=fixed;image=data:image/svg+xml,PHN2ZyB4bWxucz0iaHR0cDovL3d3dy53My5vcmcvMjAwMC9zdmciIHZpZXdCb3g9IjAgLTAuMDAwMjE5ODgyMTc0ODYwNjg2MDYgNjIuMzc5MTIzNjg3NzQ0MTQgNjIuMzYyNDIyOTQzMTE1MjM0IiB3aWR0aD0iNjIuMzc5MTIzNjg3NzQ0MTQiIGhlaWdodD0iNjIuMzYyNDIyOTQzMTE1MjM0Ij48ZGVmcz48c3R5bGU+LmNscy0xe2ZpbGw6I2RhMjkxYzt9LmNscy0ye2ZpbGw6I2ZmZjt9PC9zdHlsZT48L2RlZnM+PGcgaWQ9IkViZW5lXzIiIGRhdGEtbmFtZT0iRWJlbmUgMiI+PHBhdGggY2xhc3M9ImNscy0xIiBkPSJNMzEuMzE0OSw2Mi4zNjIyQTMxLjM5NDUsMzEuMzk0NSwwLDAsMSwwLDMxLjMxNDhDMCwxMi42MzI5LDE1LjU1NzEsMCwzMS4wODA3LDBhMzEuMTgxMywzMS4xODEzLDAsMCwxLC4yMzQyLDYyLjM2MjJaIi8+PHBhdGggY2xhc3M9ImNscy0yIiBkPSJNNTIuMzYxOCwyNi45MDA2bC0yLjc4Mi4wMDY2LDMuMzIsMy4yNjg1LTYuODE3LjAxNzhhMTcuMjAyOSwxNy4yMDI5LDAsMCwwLTQuMTctMTAuMzAzMmw0Ljc4NS00Ljc4NTYtLjAyNTYsNC42Nkw0OC42NCwxNy43OTcybC0uMDIwOS02LjAzMTQtNi4wMjYxLS4wMTQ5LTEuOTY2OSwxLjk2NzUsNC42NTktLjAyNjMtNC43NjczLDQuNzY3M2ExNy4yOTkyLDE3LjI5OTIsMCwxLDAsLjAyNywyNS40MTQ5bDQuNzk0Miw0Ljc5NDMtNC42NTktLjAyNTQsMS45NjY4LDEuOTY4MSw2LjAzMTYtLjAyMTMuMDE1NS02LjAyNTUtMS45Njc5LTEuOTY4MS4wMjU2LDQuNjYwNi00LjgxNDktNC44MTU1YTE3LjIwMzYsMTcuMjAzNiwwLDAsMCw0LjE0NDktMTAuMjVsNi44MjI4LS4wMTg1LTMuMzA2LDMuMjg0NSwyLjc4MjctLjAwNiw0LjI0MDYtNC4yODlaTTI4LjgzMzYsNDYuNDc4NUExNS4yOTkzLDE1LjI5OTMsMCwxLDEsNDQuMTMyOSwzMS4xNzkyLDE1LjMxNjcsMTUuMzE2NywwLDAsMSwyOC44MzM2LDQ2LjQ3ODVaIi8+PC9nPjwvc3ZnPg==" parent="SUd5e0gLXZyZvxVL9Ppd-19" vertex="1">
          <mxGeometry x="11" y="9" width="62" height="62" as="geometry" />
        </mxCell>
        <mxCell id="SUd5e0gLXZyZvxVL9Ppd-25" value="" style="group" parent="mhMLeF68N3GkuGjCuC4J-1" vertex="1" connectable="0">
          <mxGeometry x="260" y="310" width="200" height="80" as="geometry" />
        </mxCell>
        <mxCell id="SUd5e0gLXZyZvxVL9Ppd-26" value="" style="rounded=1;whiteSpace=wrap;html=1;strokeWidth=2;strokeColor=#7C7C7B;gradientDirection=south;arcSize=50;imageHeight=24;perimeterSpacing=10;" parent="SUd5e0gLXZyZvxVL9Ppd-25" vertex="1">
          <mxGeometry width="200" height="80" as="geometry" />
        </mxCell>
        <mxCell id="SUd5e0gLXZyZvxVL9Ppd-27" value="&lt;font face=&quot;Roboto&quot; style=&quot;font-size: 24px&quot;&gt;VM&lt;/font&gt;" style="text;strokeColor=none;fillColor=none;align=center;verticalAlign=middle;rounded=0;sketch=0;fontFamily=Montserrat;fontSource=https%3A%2F%2Ffonts.googleapis.com%2Fcss%3Ffamily%3DMontserrat;fontStyle=1;fontSize=24;spacing=0;html=1;" parent="SUd5e0gLXZyZvxVL9Ppd-25" vertex="1">
          <mxGeometry x="80" y="14" width="110" height="21" as="geometry" />
        </mxCell>
        <mxCell id="SUd5e0gLXZyZvxVL9Ppd-28" value="&lt;span style=&quot;color: rgb(218, 41, 28); font-size: 18px; font-weight: normal;&quot;&gt;&lt;font face=&quot;Roboto&quot;&gt;Server&lt;/font&gt;&lt;/span&gt;" style="text;strokeColor=none;fillColor=none;align=center;verticalAlign=middle;rounded=0;sketch=0;fontFamily=Abel;fontSource=https%3A%2F%2Ffonts.googleapis.com%2Fcss%3Ffamily%3DAbel;fontStyle=1;fontSize=16;spacing=0;html=1;" parent="SUd5e0gLXZyZvxVL9Ppd-25" vertex="1">
          <mxGeometry x="80" y="43" width="110" height="21" as="geometry" />
        </mxCell>
        <mxCell id="SUd5e0gLXZyZvxVL9Ppd-29" value="" style="endArrow=none;html=1;fontSize=20;fontColor=#E42313;strokeColor=#E42313;align=center;rounded=0;" parent="SUd5e0gLXZyZvxVL9Ppd-25" edge="1">
          <mxGeometry width="50" height="50" as="geometry">
            <mxPoint x="80" y="39.75" as="sourcePoint" />
            <mxPoint x="190" y="39.75" as="targetPoint" />
          </mxGeometry>
        </mxCell>
        <mxCell id="SUd5e0gLXZyZvxVL9Ppd-30" value="" style="shape=image;verticalLabelPosition=bottom;verticalAlign=top;imageAspect=0;aspect=fixed;image=data:image/svg+xml,PHN2ZyB4bWxucz0iaHR0cDovL3d3dy53My5vcmcvMjAwMC9zdmciIHZpZXdCb3g9IjAgMCA2Mi4zNjIyIDYyLjM2MjIiIHZlcnNpb249IjEuMSI+JiN4YTsgIDxkZWZzPiYjeGE7ICAgIDxzdHlsZT4mI3hhOyAgICAgIC5jbHMtMSB7JiN4YTsgICAgICAgIGZpbGw6ICNmZmY7JiN4YTsgICAgICB9JiN4YTsmI3hhOyAgICAgIC5jbHMtMiB7JiN4YTsgICAgICAgIGZpbGw6ICNkYTI5MWM7JiN4YTsgICAgICB9JiN4YTsgICAgPC9zdHlsZT4mI3hhOyAgPC9kZWZzPiYjeGE7ICAmI3hhOyAgPGc+JiN4YTsgICAgPGcgaWQ9IkViZW5lXzIiPiYjeGE7ICAgICAgPHBhdGggZD0iTTMxLjMxNDksNjIuMzYyMkMxMy40ODI4LDYyLjM2MjIsMCw0Ny41OTA1LDAsMzEuMzE0OCwwLDEyLjYzMjksMTUuNTU3MSwwLDMxLjA4MDcsMGMxOC42MDE2LDAsMzEuMjgxNSwxNS4zMzk5LDMxLjI4MTUsMzAuOTQ3MiwwLDE5LjA0OTUtMTUuNjU3NSwzMS40MTUtMzEuMDQ3MywzMS40MTVoMFoiIGNsYXNzPSJjbHMtMiIvPiYjeGE7ICAgICAgPGc+JiN4YTsgICAgICAgIDxwYXRoIGQ9Ik00Mi4zMjQyLDQyLjg1MDVoLTIyLjI4NjFjLTIuNzQwNywwLTQuOTcwMi0yLjIyOTUtNC45NzAyLTQuOTcwN3YtMTUuOTc0NmMwLTIuNzQwNywyLjIyOTUtNC45NzAyLDQuOTcwMi00Ljk3MDJoMjIuMjg2MWMyLjc0MDIsMCw0Ljk2OTcsMi4yMjk1LDQuOTY5Nyw0Ljk3MDJ2MTUuOTc0NmMwLDIuNzQxMi0yLjIyOTUsNC45NzA3LTQuOTY5Nyw0Ljk3MDdaTTIwLjAzODEsMTguOTM0OWMtMS42Mzc3LDAtMi45NzAyLDEuMzMyNS0yLjk3MDIsMi45NzAydjE1Ljk3NDZjMCwxLjYzNzcsMS4zMzI1LDIuOTcwNywyLjk3MDIsMi45NzA3aDIyLjI4NjFjMS42Mzc3LDAsMi45Njk3LTEuMzMzLDIuOTY5Ny0yLjk3MDd2LTE1Ljk3NDZjMC0xLjYzNzctMS4zMzItMi45NzAyLTIuOTY5Ny0yLjk3MDJoLTIyLjI4NjFaIiBjbGFzcz0iY2xzLTEiLz4mI3hhOyAgICAgICAgPHBhdGggZD0iTTM2LjI4NjEsNDYuODQ0NmgtMTAuMjFjLS41NTIyLDAtMS0uNDQ3My0xLTFzLjQ0NzgtMSwxLTFoMTAuMjFjLjU1MjcsMCwxLC40NDczLDEsMXMtLjQ0NzMsMS0xLDFaIiBjbGFzcz0iY2xzLTEiLz4mI3hhOyAgICAgIDwvZz4mI3hhOyAgICA8L2c+JiN4YTsgIDwvZz4mI3hhOzwvc3ZnPg==;" parent="SUd5e0gLXZyZvxVL9Ppd-25" vertex="1">
          <mxGeometry x="10" y="9" width="62" height="62" as="geometry" />
        </mxCell>
        <mxCell id="SUd5e0gLXZyZvxVL9Ppd-32" value="" style="endArrow=block;html=1;strokeWidth=3;endFill=0;fontSize=20;fontColor=#E42313;targetPerimeterSpacing=10;sourcePerimeterSpacing=10;strokeColor=#DA291C;rounded=0;curved=1;" parent="mhMLeF68N3GkuGjCuC4J-1" target="SUd5e0gLXZyZvxVL9Ppd-7" edge="1">
          <mxGeometry width="50" height="50" relative="1" as="geometry">
            <mxPoint x="240" y="221" as="sourcePoint" />
            <mxPoint x="360" y="142" as="targetPoint" />
            <Array as="points">
              <mxPoint x="360" y="212" />
            </Array>
          </mxGeometry>
        </mxCell>
        <mxCell id="SUd5e0gLXZyZvxVL9Ppd-33" value="" style="endArrow=block;html=1;strokeWidth=3;endFill=0;fontSize=20;fontColor=#E42313;targetPerimeterSpacing=10;sourcePerimeterSpacing=10;strokeColor=#DA291C;rounded=0;curved=1;" parent="mhMLeF68N3GkuGjCuC4J-1" target="SUd5e0gLXZyZvxVL9Ppd-26" edge="1">
          <mxGeometry width="50" height="50" relative="1" as="geometry">
            <mxPoint x="240" y="238.5" as="sourcePoint" />
            <mxPoint x="360" y="317" as="targetPoint" />
            <Array as="points">
              <mxPoint x="360" y="247" />
            </Array>
          </mxGeometry>
        </mxCell>
        <mxCell id="SUd5e0gLXZyZvxVL9Ppd-34" value="" style="endArrow=block;html=1;strokeWidth=3;endFill=0;fontSize=20;fontColor=#E42313;targetPerimeterSpacing=10;sourcePerimeterSpacing=10;strokeColor=#DA291C;rounded=0;curved=1;" parent="mhMLeF68N3GkuGjCuC4J-1" source="SUd5e0gLXZyZvxVL9Ppd-7" target="SUd5e0gLXZyZvxVL9Ppd-20" edge="1">
          <mxGeometry width="50" height="50" relative="1" as="geometry">
            <mxPoint x="500" y="101" as="sourcePoint" />
            <mxPoint x="620" y="50" as="targetPoint" />
            <Array as="points">
              <mxPoint x="540" y="110" />
            </Array>
          </mxGeometry>
        </mxCell>
        <mxCell id="SUd5e0gLXZyZvxVL9Ppd-35" value="" style="endArrow=block;html=1;strokeWidth=3;endFill=0;fontSize=20;fontColor=#E42313;targetPerimeterSpacing=10;sourcePerimeterSpacing=10;strokeColor=#DA291C;rounded=0;curved=1;" parent="mhMLeF68N3GkuGjCuC4J-1" source="SUd5e0gLXZyZvxVL9Ppd-26" target="SUd5e0gLXZyZvxVL9Ppd-20" edge="1">
          <mxGeometry width="50" height="50" relative="1" as="geometry">
            <mxPoint x="490" y="120" as="sourcePoint" />
            <mxPoint x="590" y="180" as="targetPoint" />
            <Array as="points">
              <mxPoint x="540" y="350" />
            </Array>
          </mxGeometry>
        </mxCell>
        <mxCell id="SUd5e0gLXZyZvxVL9Ppd-58" value="" style="group" parent="mhMLeF68N3GkuGjCuC4J-1" vertex="1" connectable="0">
          <mxGeometry x="820" y="70" width="200" height="80" as="geometry" />
        </mxCell>
        <mxCell id="SUd5e0gLXZyZvxVL9Ppd-59" value="" style="rounded=1;whiteSpace=wrap;html=1;strokeWidth=2;strokeColor=#7C7C7B;gradientDirection=south;arcSize=50;imageHeight=24;perimeterSpacing=10;" parent="SUd5e0gLXZyZvxVL9Ppd-58" vertex="1">
          <mxGeometry width="200" height="80" as="geometry" />
        </mxCell>
        <mxCell id="SUd5e0gLXZyZvxVL9Ppd-60" value="&lt;font face=&quot;Roboto&quot; style=&quot;font-size: 24px&quot;&gt;Kafka&lt;/font&gt;" style="text;strokeColor=none;fillColor=none;align=center;verticalAlign=middle;rounded=0;sketch=0;fontFamily=Montserrat;fontSource=https%3A%2F%2Ffonts.googleapis.com%2Fcss%3Ffamily%3DMontserrat;fontStyle=1;fontSize=24;spacing=0;html=1;" parent="SUd5e0gLXZyZvxVL9Ppd-58" vertex="1">
          <mxGeometry x="80" y="14" width="110" height="21" as="geometry" />
        </mxCell>
        <mxCell id="SUd5e0gLXZyZvxVL9Ppd-61" value="&lt;span style=&quot;color: rgb(218, 41, 28); font-size: 18px; font-weight: normal;&quot;&gt;&lt;font face=&quot;Roboto&quot;&gt;Database&lt;/font&gt;&lt;/span&gt;" style="text;strokeColor=none;fillColor=none;align=center;verticalAlign=middle;rounded=0;sketch=0;fontFamily=Abel;fontSource=https%3A%2F%2Ffonts.googleapis.com%2Fcss%3Ffamily%3DAbel;fontStyle=1;fontSize=16;spacing=0;html=1;" parent="SUd5e0gLXZyZvxVL9Ppd-58" vertex="1">
          <mxGeometry x="80" y="43" width="110" height="21" as="geometry" />
        </mxCell>
        <mxCell id="SUd5e0gLXZyZvxVL9Ppd-62" value="" style="endArrow=none;html=1;fontSize=20;fontColor=#E42313;strokeColor=#E42313;align=center;rounded=0;" parent="SUd5e0gLXZyZvxVL9Ppd-58" edge="1">
          <mxGeometry width="50" height="50" as="geometry">
            <mxPoint x="80" y="39.75" as="sourcePoint" />
            <mxPoint x="190" y="39.75" as="targetPoint" />
          </mxGeometry>
        </mxCell>
        <mxCell id="wgDSZRqRZ50xkBtg6eMg-3" value="" style="shape=image;verticalLabelPosition=bottom;labelBackgroundColor=default;verticalAlign=top;aspect=fixed;imageAspect=0;editableCssRules=.*;image=data:image/svg+xml,PHN2ZyB4bWxucz0iaHR0cDovL3d3dy53My5vcmcvMjAwMC9zdmciIHZpZXdCb3g9IjAgMC4wMDIwMDAwMDAwOTQ5OTQ5MDI2IDYyLjM2MTk5OTUxMTcxODc1IDYyLjM2MjAwMzMyNjQxNjAxNiIgdmVyc2lvbj0iMS4xIiBpZD0iRWJlbmVfNSIgd2lkdGg9IjYyLjM2MTk5OTUxMTcxODc1IiBoZWlnaHQ9IjYyLjM2MjAwMzMyNjQxNjAxNiI+PGRlZnM+PHN0eWxlPi5zdDB7ZmlsbDojZmZmfTwvc3R5bGU+PC9kZWZzPjxwYXRoIHN0eWxlPSJmaWxsOiNkYTI5MWMiIGQ9Ik0zMS4zMTUgNjIuMzY0QzEzLjQ4MyA2Mi4zNjQgMCA0Ny41OTIgMCAzMS4zMTYgMCAxMi42MzUgMTUuNTU3LjAwMiAzMS4wOC4wMDJjMTguNjAyIDAgMzEuMjgyIDE1LjM0IDMxLjI4MiAzMC45NDcgMCAxOS4wNS0xNS42NTcgMzEuNDE1LTMxLjA0NyAzMS40MTUiIGlkPSJIaW50ZXJncnVuZCIvPjxwYXRoIGNsYXNzPSJzdDAiIGQ9Ik0yMi4wNDkgMzQuMTNjLS4xNjUuMjcyLS4yMzcuODk1LS4wNzEgMS4yODcgMS4zMTYgMy4xMTEgMi43MiA2LjIzNCA0LjA3NyA5LjI1NC4xNjMuMzYxLjU3Ni43OCAxLjIzNC41NDcuNTAyLS4xOC42OTItLjU1OC41ODItMS4xNTZhMi40IDIuNCAwIDAgMC0uMTg3LS41MThsLTEuMTQ0LTIuNTdxLS44MDYtMS44MDgtMS42MS0zLjYyMWExMiAxMiAwIDAgMS0uMjktLjc1bC0uMDQzLS4xMTZhLjUyLjUyIDAgMCAxIC4wNDItLjM5NC40NS40NSAwIDAgMSAuMzI3LS4yMDZjMi40MjktLjI5MiA0LjMxNi0xLjM3IDUuNzctMy4yOTMuMTY1LS4yMjIuNTI3LS4zMjIuNzM2LS4zMDQgMi4zMTYuNDA0IDQuMjYzLjE0IDUuOTg4LS44bC4wMTMtLjAwNC4wMTYtLjAxLjAwMi4wMDNjLjE4My0uMDYuNC4wMTYuNDguMTlhLjQuNCAwIDAgMSAuMDQuMTQ3aC4wMmEuNC40IDAgMCAxLS4wMzUuMTU2bC0uMzc5Ljg0NGEzNSAzNSAwIDAgMS0uODk2IDEuOTJjLS41MDUuOTgyLS4xNDYgMS4zNC4xNjkgMS41MjMuNzEuNDE0IDEuMjI3LS4xMzEgMS40NzUtLjQ5MyAxLjQ3LTIuMTM4IDIuMDE5LTQuMTUyIDEuNzI1LTYuMzM5LS4wNjctLjQ5Ny0uNTM1LTEuMTYyLTEuMDYzLTEuMzA4LS40NjQtLjEyMi0uODM5LjAyNi0xLjE4NS40NzFhNCA0IDAgMCAxLS40ODQuNTI1Yy0xLjM2NyAxLjIxNC0zLjAyNSAxLjY2Ny00LjkzIDEuMzUzLS4xNzMtLjAzLS4zNjItLjI0My0uMzcxLS40MThxLS4wMzItLjU0Ny0uMDU4LTEuMDc1Yy0uMDQ2LS44ODMtLjA5Ny0xLjg4Ni0uMi0yLjg0N2EuODQuODQgMCAwIDAtLjMxNi0uNTk3Ljc0Ljc0IDAgMCAwLS41OTItLjEyN3EtLjYzMi4xMTMtLjg2NC40NjhjLS4xNzYuMjctLjExLjU2Ni0uMDQxLjg4bC4wMy4xNDJjLjM5NiAxLjk3NC0uMTkzIDMuOTQ5LTEuNTYzIDUuMzM4LTEuMzcyIDEuMzktMy4yNTMgMS45ODMtNS4xNiAxLjYyOC0uMDg3LS4wMTctLjkxNS0uMjctMS4yNDQuMjdtLTE0LjAzLTQuNDI0Yy0uMzIgMC0uNTg2LjE2My0uNzcuNDgtLjM3Mi42NC0uMDI4IDEuMDYyLjMyNyAxLjMwNCAzLjM3NCAyLjI4NyA2LjUwNCAyLjEyNyA5LjA3My0uNDc4LjgzLS44NDMgMS41Ny0xLjc5NCAyLjI4OC0yLjcxM3EuMzg5LS41MDEuNzg1LS45OTVhLjUuNSAwIDAgMSAuMzM3LS4xNjJjLjI2NS4wMjIuMzYzLjE4Ni4zOTQuMjU1LjExNS4yNS4yNDIuNTI3LjM4My43OTcuMjI2LjQzNC41MTQuNzE0LjgzNS44MS4yMzguMDcuNTAyLjAzMy43NTgtLjExLjY0Ny0uMzY2LjQzMS0xLjA3My4xMzctMS42MDMtLjg2OS0xLjU2LTEuMDI2LTMuMTIyLS40NjktNC42NC43MTQtMS45NDMgMi4zODctMy4zODQgNC40NzUtMy44NTMgMi4xMDUtLjQ3NCA0LjI1NS4xMjEgNS43NDggMS41OTIuMTk3LjE5Mi4zODYuMzkzLjU3Ny41OTRsLjA2Ny4wNzJxLjI0MS4yNi40ODguNTExYzEuMjczIDEuMjg4IDIuOTEgMi4wMDUgNC40MjUgMS45MSAxLjQyNS0uMDkgMi43MDItLjg2MyAzLjc5OC0yLjI5NXEuMTE0LS4xNTEuMjI3LS4zMDhjLjE5Ni0uMjcuMzk4LS41NDguNjQxLS43ODkuNDYyLS40NTcgMS4xNTYtMS4xNDcgMi4wNDQtLjY4Ny44NTIuNDQgMS42OTQuOTU1IDIuNDM2IDEuNDFsLjIzOC4xNDRjLjQxLjIxNS43OTMuNDUuNzI0LjgyOS4wMDYuMzI3LS41NDguNDgyLS45NjUuNTY0bC0uMTc0LjA0NGMtMSAuMjQ1LTEuOTk4LjQ5MS0yLjk3Mi43NjEtLjUwMi4xNC0uODI4LjMxMi0uOTcuNTEyLS41Ni43ODktMS4wMTcgMS42Ni0xLjQwMiAyLjQxNS0uMi4zOTUtLjMxNi45NDcuMjcgMS4zMzcuNTIzLjM0NS45ODYuMjU0IDEuMzgtLjI3Mi4zNjQtLjQ5LjY0LS45MzEuODQ0LTEuMzQ4LjI4LS41NzMuNjc2LS44ODQgMS4yODUtMS4wMDlhNDEgNDEgMCAwIDAgMi4zOTktLjU5M2wuNjY4LS4xNzhjLjkwNi0uMjQgMS40Ni0uODI4IDEuNjQ4LTEuNzQ4LjIwMi0uOTg4LS4yMjMtMS45OTctMS4wODUtMi41NzJhMzcgMzcgMCAwIDAtMy41Mi0yLjA4NmMtLjg1LS40MzgtLjc0LTEuMDItLjU0Ny0xLjQ4LjEwNC0uMjQ5LjQxMy0uODc2LjU3Ny0xLjExOGExLjE2IDEuMTYgMCAwIDAgLjA2LS44NzMuODQuODQgMCAwIDAtLjQ1LS41MTZjLS40OC0uMTk1LTEuMDA2LjA1Ni0xLjM0OC42NjctLjI5My41MjQtLjUzMSAxLjA3OC0uODA3IDEuNzE4LS4xNi4zNzEtLjI5LjY3OC0uNDQgMS4wMS0uNjMgMS41NTgtMi4xODkgMy4wOS0yLjg1NSAzLjc0My0uNjgzLjY3Mi0yLjA3MyAxLjA1NS0yLjkxNi41NTgtLjg2MS0uNTA1LTEuNzU4LTEuMDYzLTIuNDEtMS44Mi0xLjQ3NS0xLjcxMi0zLjU2My0yLjY5OS01Ljg3OS0yLjc3Ny0yLjQwNy0uMDgzLTQuNzcuODI2LTYuMzIzIDIuNC0uOTIuOTMxLTEuNDggMi4wOTQtMi4wMjIgMy4yMTktLjE2OC4zNDgtLjMwMi42MjYtLjQ0My45MDItMS4zMDUgMi41NTgtMi41NDUgNC44MjItNC41MSA2LjYxNC0xLjY2IDEuNTE4LTMuMzU5IDEuNzI4LTUuMzQ2LjY1N2E5IDkgMCAwIDEtLjQ5LS4yOWMtLjIyMi0uMTM2LS40NDgtLjI3Ni0uNjg4LS4zODVxLS4yODctLjEzLS41MzYtLjEzIiBpZD0iSUNPTiIvPjxwYXRoIGNsYXNzPSJzdDAiIGQ9Ik01MS44OCAzOC40OWMtLjEzLTEuOTMtMy40OC0yLjk4LTYuNjUtMi45OC0zLjE2IDAtNi41MSAxLjA1LTYuNjQgMi45OC0uMDEuMDQtLjAxLjA4LS4wMS4xMnYxMC4xOGMwIDIuMDEgMy40MyAzLjEgNi42NSAzLjEgMy4yMyAwIDYuNjYtMS4wOSA2LjY2LTMuMVYzOC42MWMwLS4wNCAwLS4wOC0uMDEtLjEybS0xLjI0IDEwLjNjMCAuNzUtMi4xMSAxLjg1LTUuNDEgMS44NXMtNS40LTEuMS01LjQtMS44NXYtMS40M2MuOTcuNTQgMi42NiAxLjEzIDUuNCAxLjEzIDIuNzcgMCA0LjQ1LS41OCA1LjQxLTEuMTJ6bTAtMi45NGMtLjQyLjM2LTEuOSAxLjM5LTUuNDEgMS4zOS0zLjQ4IDAtNC45Ny0xLjAxLTUuNC0xLjM4di0xLjg5Yy45Ny41NCAyLjY2IDEuMTMgNS40IDEuMTMgMi43NyAwIDQuNDUtLjU4IDUuNDEtMS4xMnptMC0zLjM5Yy0uNDIuMzYtMS45IDEuMzktNS40MSAxLjM5LTMuNDggMC00Ljk3LTEuMDEtNS40LTEuMzh2LTJjMS4yOC44MiAzLjM4IDEuMjUgNS40IDEuMjVzNC4xMy0uNDMgNS40MS0xLjI1em0tNS40MS0xLjk5Yy0zLjMgMC01LjQtMS4xLTUuNC0xLjg2IDAtLjc1IDIuMS0xLjg1IDUuNC0xLjg1czUuNDEgMS4xIDUuNDEgMS44NWMwIC43Ni0yLjExIDEuODYtNS40MSAxLjg2IiBpZD0iVG9ubmUiLz48L3N2Zz4=;" parent="SUd5e0gLXZyZvxVL9Ppd-58" vertex="1">
          <mxGeometry x="10" y="9" width="62" height="62" as="geometry" />
        </mxCell>
        <mxCell id="SUd5e0gLXZyZvxVL9Ppd-64" value="" style="group" parent="mhMLeF68N3GkuGjCuC4J-1" vertex="1" connectable="0">
          <mxGeometry x="820" y="190" width="200" height="80" as="geometry" />
        </mxCell>
        <mxCell id="SUd5e0gLXZyZvxVL9Ppd-65" value="" style="rounded=1;whiteSpace=wrap;html=1;strokeWidth=2;strokeColor=#7C7C7B;gradientDirection=south;arcSize=50;imageHeight=24;perimeterSpacing=10;" parent="SUd5e0gLXZyZvxVL9Ppd-64" vertex="1">
          <mxGeometry width="200" height="80" as="geometry" />
        </mxCell>
        <mxCell id="SUd5e0gLXZyZvxVL9Ppd-66" value="&lt;font face=&quot;Roboto&quot; style=&quot;font-size: 24px&quot;&gt;Valkey&lt;/font&gt;" style="text;strokeColor=none;fillColor=none;align=center;verticalAlign=middle;rounded=0;sketch=0;fontFamily=Montserrat;fontSource=https%3A%2F%2Ffonts.googleapis.com%2Fcss%3Ffamily%3DMontserrat;fontStyle=1;fontSize=24;spacing=0;html=1;" parent="SUd5e0gLXZyZvxVL9Ppd-64" vertex="1">
          <mxGeometry x="80" y="14" width="110" height="21" as="geometry" />
        </mxCell>
        <mxCell id="SUd5e0gLXZyZvxVL9Ppd-67" value="&lt;span style=&quot;color: rgb(218, 41, 28); font-size: 18px; font-weight: normal;&quot;&gt;&lt;font face=&quot;Roboto&quot;&gt;Database&lt;/font&gt;&lt;/span&gt;" style="text;strokeColor=none;fillColor=none;align=center;verticalAlign=middle;rounded=0;sketch=0;fontFamily=Abel;fontSource=https%3A%2F%2Ffonts.googleapis.com%2Fcss%3Ffamily%3DAbel;fontStyle=1;fontSize=16;spacing=0;html=1;" parent="SUd5e0gLXZyZvxVL9Ppd-64" vertex="1">
          <mxGeometry x="80" y="43" width="110" height="21" as="geometry" />
        </mxCell>
        <mxCell id="SUd5e0gLXZyZvxVL9Ppd-68" value="" style="endArrow=none;html=1;fontSize=20;fontColor=#E42313;strokeColor=#E42313;align=center;rounded=0;" parent="SUd5e0gLXZyZvxVL9Ppd-64" edge="1">
          <mxGeometry width="50" height="50" as="geometry">
            <mxPoint x="80" y="39.75" as="sourcePoint" />
            <mxPoint x="190" y="39.75" as="targetPoint" />
          </mxGeometry>
        </mxCell>
        <mxCell id="wgDSZRqRZ50xkBtg6eMg-4" value="" style="shape=image;verticalLabelPosition=bottom;labelBackgroundColor=default;verticalAlign=top;aspect=fixed;imageAspect=0;editableCssRules=.*;image=data:image/svg+xml,PHN2ZyB4bWxucz0iaHR0cDovL3d3dy53My5vcmcvMjAwMC9zdmciIHZpZXdCb3g9IjAgMC4wMDIwMDAwMDAwOTQ5OTQ5MDI2IDYyLjM2MTk5OTUxMTcxODc1IDYyLjM2MjAwMzMyNjQxNjAxNiIgd2lkdGg9IjYyLjM2MTk5OTUxMTcxODc1IiBoZWlnaHQ9IjYyLjM2MjAwMzMyNjQxNjAxNiI+PGRlZnM+PHN0eWxlPi5zdDB7ZmlsbDojZmZmfS5zdDF7ZmlsbDojZGEyOTFjfTwvc3R5bGU+PC9kZWZzPjxwYXRoIGNsYXNzPSJzdDEiIGQ9Ik0zMS4zMTUgNjIuMzY0QzEzLjQ4MyA2Mi4zNjQgMCA0Ny41OTIgMCAzMS4zMTYgMCAxMi42MzUgMTUuNTU3LjAwMiAzMS4wOC4wMDJjMTguNjAyIDAgMzEuMjgyIDE1LjM0IDMxLjI4MiAzMC45NDcgMCAxOS4wNS0xNS42NTcgMzEuNDE1LTMxLjA0NyAzMS40MTUiIGlkPSJIaW50ZXJncnVuZCIvPjxnIGlkPSJJQ09OIj48cGF0aCBjbGFzcz0ic3QwIiBkPSJNMzAuNDYzIDE5LjE5MWMtLjk4MSAwLTEuNzA4LjYyNS0yLjA2IDEuMDJxLS4wMDkuMDEzLS4wMi4wMjNjLS41ODcuNTY2LTMuMTk2IDUuMzQ3LTMuNDI0IDcuNTUtLjE1IDEuNDQzLjY3OCAzLjQ1MSAxLjQ4IDUuMzk0LjUwMSAxLjIxNi44OCAyLjE2My45MDMgMi41NTFsLjA2MiA4LjFjMCAxLjMxNC42ODQgMi41MDkgMS44MyAzLjIgMS4zLjc4MSAzLjA3OC44MTggNC40My4wODNsMTAuOTM1LTYuMzQyYzMuMjktMi4xMDIgMy4yNjEtMy44ODEgMy4yMjMtNi4xMzNsLS4wMDgtMTEuMzQ0YzAtMi43MjYtLjIwNC00LjYyOC0yLjkzMi02LjE3NWwtOS4yOC00LjkxNWE4LjE4IDguMTggMCAwIDAtNy45NC0uMDRsLTguNzA3IDQuOTY2Yy0yLjM2MyAxLjMwNi00LjQ4IDIuNzU4LTQuNDggNi4xNjR2MTAuNTQ5YzAgMi45MDggMS40NTggNS42NTQgMy45MDEgNy4zNDQuMDYyLjA0NC42MDUuMzg4IDMuNTUzIDIuMjE0YS45OTkuOTk5IDAgMCAwIDEuNS0xLjA3OCAxIDEgMCAwIDAtLjQ0Ni0uNjJsLS4wMDctLjAwNS0uNjYtLjQwOWMtLjk1Ni0uNTk0LTIuNjItMS42MjUtMi43OTMtMS43NC0xLjkxMS0xLjMyMS0zLjA0OC0zLjQ1My0zLjA0OC01LjcwNnYtMTAuNTVjMC0xLjk0NS43NzUtMi45MzcgMy40Ni00LjQxOGw4LjcwNi00Ljk2NmE2LjE4IDYuMTggMCAwIDEgNS45OTkuMDQ5bDkuMjc5IDQuOTE1YzEuNjQ4LjkzNSAxLjg5NSAxLjgyOSAxLjg5NSA0LjQydjEwLjU1cTAgLjQzMy4wMS44MjdjLjAzNCAyLjEyMy4wNDcgMi45MTYtMi4yNjUgNC4zOTNsLTEwLjg3NSA2LjMwNmMtLjczNC40LTEuNzAzLjM3Ny0yLjQxOC0uMDUzYTEuNzMgMS43MyAwIDAgMS0uODYyLTEuNDgzbC0uMDAyLTYuNzg3LS4wNjItMS40Yy0uMDMxLS43MjEtLjQyLTEuNjk2LTEuMDUyLTMuMjI4LS43NTctMS44MzYtMS40My0zLjU1Ny0xLjM0LTQuNDI4LjE3Ny0xLjcxIDIuNDAzLTUuNzczIDIuNzg2LTYuMjczLjIzOC0uMzAxLjQ3OS0uNDUyLjU4Ni0uNDk2YS40LjQgMCAwIDEgLjE0Mi0uMDI4bDEuOTMyLS4wMDRoLjAwMXEuMDYzIDAgLjEyMi4wMmMuMTI1LjA0My4yNS4xNDIuNDYzLjMzNS4wMTYuMDE0LjA4Ni4wOC4xLjA5Ny40OC42MTIgMi42ODIgNC42NjYgMi44NTYgNi4zNS4xNSAxLjQ0Ny0uODkzIDMuNjQ0LTEuMzM5IDQuNTgyLS4xMDIuMjEyLS4xODEuMzgxLS4yMy40OThhMSAxIDAgMCAwIC41MyAxLjMxIDEuMDEgMS4wMSAwIDAgMCAxLjMxMy0uNTMxYy4wMzctLjA4OC4wOTYtLjIxNS4xNy0uMzcuNTg1LTEuMjI4IDEuNzU1LTMuNjg1IDEuNTQ2LTUuNjk3LS4yMy0yLjIwNS0yLjgzOC02Ljk4My0zLjQyNS03LjU0OC0uNDM0LS40MTYtMS4wODQtMS4wNDItMi4wOC0xLjA0MnoiIGlkPSJHcm91cC1jb3B5Ii8+PC9nPjxwYXRoIGNsYXNzPSJzdDEiIGQ9Ik00NS4yMyA1My4xNjVjLTMuODE3IDAtNy45MjUtMS4zNy03LjkyNS00LjM3NVYzOC42MWMwLS4wNTYgMC0uMTU3LjAxOC0uMjgzLjI2LTIuODExIDQuMjY1LTQuMDkzIDcuOTA3LTQuMDkzIDMuNjQ4IDAgNy42NTcgMS4yODEgNy45MTYgNC4wOTMuMDIuMTI2LjAyLjIyNy4wMi4yODN2MTAuMThjMCAzLjAwNi00LjExNCA0LjM3NS03LjkzNiA0LjM3NSIgaWQ9IlRvbm5lX091dGxpbmUiLz48cGF0aCBjbGFzcz0ic3QwIiBkPSJNNTEuODggMzguNDljLS4xMy0xLjkzLTMuNDgtMi45OC02LjY1LTIuOTgtMy4xNiAwLTYuNTEgMS4wNS02LjY0IDIuOTgtLjAxLjA0LS4wMS4wOC0uMDEuMTJ2MTAuMThjMCAyLjAxIDMuNDMgMy4xIDYuNjUgMy4xIDMuMjMgMCA2LjY2LTEuMDkgNi42Ni0zLjFWMzguNjFjMC0uMDQgMC0uMDgtLjAxLS4xMm0tMS4yNCAxMC4zYzAgLjc1LTIuMTEgMS44NS01LjQxIDEuODVzLTUuNC0xLjEtNS40LTEuODV2LTEuNDNjLjk3LjU0IDIuNjYgMS4xMyA1LjQgMS4xMyAyLjc3IDAgNC40NS0uNTggNS40MS0xLjEyem0wLTIuOTRjLS40Mi4zNi0xLjkgMS4zOS01LjQxIDEuMzktMy40OCAwLTQuOTctMS4wMS01LjQtMS4zOHYtMS44OWMuOTcuNTQgMi42NiAxLjEzIDUuNCAxLjEzIDIuNzcgMCA0LjQ1LS41OCA1LjQxLTEuMTJ6bTAtMy4zOWMtLjQyLjM2LTEuOSAxLjM5LTUuNDEgMS4zOS0zLjQ4IDAtNC45Ny0xLjAxLTUuNC0xLjM4di0yYzEuMjguODIgMy4zOCAxLjI1IDUuNCAxLjI1czQuMTMtLjQzIDUuNDEtMS4yNXptLTUuNDEtMS45OWMtMy4zIDAtNS40LTEuMS01LjQtMS44NiAwLS43NSAyLjEtMS44NSA1LjQtMS44NXM1LjQxIDEuMSA1LjQxIDEuODVjMCAuNzYtMi4xMSAxLjg2LTUuNDEgMS44NiIgaWQ9IlRvbm5lIi8+PC9zdmc+;" parent="SUd5e0gLXZyZvxVL9Ppd-64" vertex="1">
          <mxGeometry x="10" y="9" width="62" height="62" as="geometry" />
        </mxCell>
        <mxCell id="SUd5e0gLXZyZvxVL9Ppd-70" value="" style="group" parent="mhMLeF68N3GkuGjCuC4J-1" vertex="1" connectable="0">
          <mxGeometry x="820" y="310" width="200" height="80" as="geometry" />
        </mxCell>
        <mxCell id="SUd5e0gLXZyZvxVL9Ppd-71" value="" style="rounded=1;whiteSpace=wrap;html=1;strokeWidth=2;strokeColor=#7C7C7B;gradientDirection=south;arcSize=50;imageHeight=24;perimeterSpacing=10;" parent="SUd5e0gLXZyZvxVL9Ppd-70" vertex="1">
          <mxGeometry width="200" height="80" as="geometry" />
        </mxCell>
        <mxCell id="SUd5e0gLXZyZvxVL9Ppd-72" value="&lt;font face=&quot;Roboto&quot; style=&quot;font-size: 24px&quot;&gt;MySQL&lt;/font&gt;" style="text;strokeColor=none;fillColor=none;align=center;verticalAlign=middle;rounded=0;sketch=0;fontFamily=Montserrat;fontSource=https%3A%2F%2Ffonts.googleapis.com%2Fcss%3Ffamily%3DMontserrat;fontStyle=1;fontSize=24;spacing=0;html=1;" parent="SUd5e0gLXZyZvxVL9Ppd-70" vertex="1">
          <mxGeometry x="80" y="14" width="110" height="21" as="geometry" />
        </mxCell>
        <mxCell id="SUd5e0gLXZyZvxVL9Ppd-73" value="&lt;span style=&quot;color: rgb(218, 41, 28); font-size: 18px; font-weight: normal;&quot;&gt;&lt;font face=&quot;Roboto&quot;&gt;Database&lt;/font&gt;&lt;/span&gt;" style="text;strokeColor=none;fillColor=none;align=center;verticalAlign=middle;rounded=0;sketch=0;fontFamily=Abel;fontSource=https%3A%2F%2Ffonts.googleapis.com%2Fcss%3Ffamily%3DAbel;fontStyle=1;fontSize=16;spacing=0;html=1;" parent="SUd5e0gLXZyZvxVL9Ppd-70" vertex="1">
          <mxGeometry x="80" y="43" width="110" height="21" as="geometry" />
        </mxCell>
        <mxCell id="SUd5e0gLXZyZvxVL9Ppd-74" value="" style="endArrow=none;html=1;fontSize=20;fontColor=#E42313;strokeColor=#E42313;align=center;rounded=0;" parent="SUd5e0gLXZyZvxVL9Ppd-70" edge="1">
          <mxGeometry width="50" height="50" as="geometry">
            <mxPoint x="80" y="39.75" as="sourcePoint" />
            <mxPoint x="190" y="39.75" as="targetPoint" />
          </mxGeometry>
        </mxCell>
        <mxCell id="wgDSZRqRZ50xkBtg6eMg-5" value="" style="shape=image;verticalLabelPosition=bottom;labelBackgroundColor=default;verticalAlign=top;aspect=fixed;imageAspect=0;editableCssRules=.*;image=data:image/svg+xml,PHN2ZyB4bWxucz0iaHR0cDovL3d3dy53My5vcmcvMjAwMC9zdmciIHZpZXdCb3g9IjAgMCA2Mi4zNjE5OTk1MTE3MTg3NSA2Mi4zNjE5OTk1MTE3MTg3NSIgdmVyc2lvbj0iMS4xIiBpZD0iRWJlbmVfNSIgd2lkdGg9IjYyLjM2MTk5OTUxMTcxODc1IiBoZWlnaHQ9IjYyLjM2MTk5OTUxMTcxODc1Ij48ZGVmcz48c3R5bGU+LnN0MHtmaWxsOiNmZmZ9PC9zdHlsZT48L2RlZnM+PHBhdGggc3R5bGU9ImZpbGw6I2RhMjkxYyIgZD0iTTMxLjMxNSA2Mi4zNjJDMTMuNDgzIDYyLjM2MiAwIDQ3LjU5IDAgMzEuMzE1IDAgMTIuNjMzIDE1LjU1NyAwIDMxLjA4IDBjMTguNjAyIDAgMzEuMjgyIDE1LjM0IDMxLjI4MiAzMC45NDcgMCAxOS4wNS0xNS42NTcgMzEuNDE1LTMxLjA0NyAzMS40MTUiLz48cGF0aCBjbGFzcz0ic3QwIiBkPSJNNDMuOTY2IDEyLjM4Yy0uNDI3LS4wMjQtMS41MjUgMC0zLjM1NyAxLjI4NC0uNDkuMzQzLTEuMjYxLjc1NC0xLjc2Ni45NjUtLjI2OS4wODQtLjgxNS4xMzItMS45MTguMTc4LTEuNjU3LjA2Ni0zLjAwOC40Mi00LjI3MyAxLjExNi0zLjgxOCAyLjA5Ny02LjE0NCA3LjYxLTcuMTM4IDkuOTYzbC0uMjY1LjYyYy0uMDk3LjIxNi0uMjM0LjQyNC0uNTkyLjUyMS0zLjc5Ny4xNDktNy4zNyAxLjc5Mi05LjExOSAzLjI2Mi0uMTMuMTEtLjI0Ni4yNC0uMzYyLjM3NmExIDEgMCAwIDAtLjIyNSAxLjAyMyAxIDEgMCAwIDAgLjc5Ny42NmMuMzcyLjA1Ni42ODIuMDY1IDEuMDguMDczLjc0LjAxNCAxLjc1NS4wMzIgNC40My42MjJsLjM4My4wODUtLjEwMy4zOGMtLjU5NCAyLjE5Ny0zLjM1OSA3LjU2Mi01LjAzMiA4Ljk3MmExIDEgMCAwIDAtLjEyIDEuNDA4IDEuMDMgMS4wMyAwIDAgMCAxLjQwOS4xMjFjMi4wNzgtMS43NSA2LjM0OS05LjQ1IDUuODEtMTEuNzAyLS4xMjEtLjUxMi0uNDgtLjg4NS0uOTU2LS45OThhNTMgNTMgMCAwIDAtMi41ODctLjU0OWwtMS4zMDItLjIzOCAxLjIzNC0uNDhjMS4xMDQtLjQzIDIuODI3LS45NTQgNC43NjQtMS4wMDdhMSAxIDAgMCAwIC4xNjEtLjAxN2MxLS4xOSAxLjc0Ni0uNzc2IDIuMTU1LTEuNjkybC4yODMtLjY2MmMuOTEyLTIuMTYgMy4wNDctNy4yMjQgNi4yNi04Ljk5Ljk5NC0uNTQ3IDIuMDMzLS44MTUgMy4zNjctLjg2OSAxLjM0Mi0uMDUzIDIuMTEzLS4xMTcgMi41OTUtLjMxNy43NjItLjMxNyAxLjM4Ni0uNzggMS45MzYtMS4xODcuNjU1LS40ODUgMS4xMzItLjc4MyAxLjQyLS44ODYuMjEzLS4wNjkuMjk4LS4wNy40NTQtLjA0OS40NDQuMDYxLjc1LjY1Ny4yOTQgMS4xNjgtLjI5NS4zMjYtLjU1NS41OTYtLjgyNS44NzQtMS4wNzQgMS4xMTItMi4yOSAyLjM3LTMuMzQyIDMuOTktLjc1NiAxLjM4Mi0uOTc1IDEuNjktMS43ODYgMi41MTgtLjg2Ljg3OC0uNjIgMS45NTctLjM2NyAyLjY5Mi4xMzYuMzkzLjMwNi43NzcuNDc1IDEuMTYyLjM2Mi44Mi42NzYgMS41My42IDIuMjExLS4wMjMuMTQ0LS4wODQuMzg2LS4zNzIgMS4wNjJsLS4zMTcuNzQ4LS4zNjMtLjcyOGExMSAxMSAwIDAgMC0uNTMyLS45MzJsLS4wNTYtLjA5MWE0IDQgMCAwIDEtLjItLjM1IDEgMSAwIDAgMC0xLjMzLS40NzUgMS4wMDQgMS4wMDQgMCAwIDAtLjQ3OSAxLjMzMmMuMDg2LjE3OS4yMDguMzgyLjM1Mi42MTYuNDYzLjc0OSAxLjA5NiAxLjc3MiAxLjA5NCAzLjgxNCAwIC4zNzguMjIuNzMuNTYuODk3LjM0Ny4xNy43NS4xMjcgMS4wNTQtLjEwNy40NS0uMzU0IDIuNDY3LTQuNTYyIDIuNTc2LTUuNTU1LjEzNC0xLjIyNS0uMzM4LTIuMjk3LS43NTQtMy4yNDNhMTQgMTQgMCAwIDEtLjQxNy0xLjAxNWMtLjA3LS4yLS4xLS4zMjUtLjExMi0uMzk5bC0uMDMzLS4xODcuMTMzLS4xMzdjLjkxNi0uOTQ1IDEuMjQ3LTEuNDQ3IDEuOTg4LTIuODA1LjkwOC0xLjM5NSAyLjAwNS0yLjUzIDMuMDY4LTMuNjI5bC4xMTQtLjExOHEuMzk2LS40MS43NjMtLjgwMmMuNDQ0LS40NzkuOTc3LTEuNDc1Ljc2NS0yLjYxNy0uMDU4LS4zMTYtLjIxNS0xLjczLTEuOTc1LTEuODhaIi8+PHBhdGggY2xhc3M9InN0MCIgZD0iTTMyLjYyMSAzMi43MDRhMSAxIDAgMCAwLS44NTIuNDc2Yy0uMTg1LjI5Ny00LjU2IDcuMjctOS4wNDUgMTAuMzQ5YTEgMSAwIDAgMC0uNDE4LjY0IDEgMSAwIDAgMCAuMTU4Ljc0N2MuMy40NDIuOTUxLjU2MyAxLjM5LjI2MSA0LjktMy4zNjIgOS40MjUtMTAuNjM4IDkuNjE2LTEwLjk0NmExLjAwMiAxLjAwMiAwIDAgMC0uODQ5LTEuNTI3bTE5LjI1OSA1Ljc4NGMtLjEzLTEuOTMtMy40OC0yLjk4LTYuNjUtMi45OC0zLjE2IDAtNi41MSAxLjA1LTYuNjQgMi45OC0uMDEuMDQtLjAxLjA4LS4wMS4xMnYxMC4xOGMwIDIuMDEgMy40MyAzLjEgNi42NSAzLjEgMy4yMyAwIDYuNjYtMS4wOSA2LjY2LTMuMXYtMTAuMThjMC0uMDQgMC0uMDgtLjAxLS4xMm0tMS4yNCAxMC4zYzAgLjc1LTIuMTEgMS44NS01LjQxIDEuODVzLTUuNC0xLjEtNS40LTEuODV2LTEuNDNjLjk3LjU0IDIuNjYgMS4xMyA1LjQgMS4xMyAyLjc3IDAgNC40NS0uNTggNS40MS0xLjEyem0wLTIuOTRjLS40Mi4zNi0xLjkgMS4zOS01LjQxIDEuMzktMy40OCAwLTQuOTctMS4wMS01LjQtMS4zOHYtMS44OWMuOTcuNTQgMi42NiAxLjEzIDUuNCAxLjEzIDIuNzcgMCA0LjQ1LS41OCA1LjQxLTEuMTJ6bTAtMy4zOWMtLjQyLjM2LTEuOSAxLjM5LTUuNDEgMS4zOS0zLjQ4IDAtNC45Ny0xLjAxLTUuNC0xLjM4di0yYzEuMjguODIgMy4zOCAxLjI1IDUuNCAxLjI1czQuMTMtLjQzIDUuNDEtMS4yNXptLTUuNDEtMS45OWMtMy4zIDAtNS40LTEuMS01LjQtMS44NiAwLS43NSAyLjEtMS44NSA1LjQtMS44NXM1LjQxIDEuMSA1LjQxIDEuODVjMCAuNzYtMi4xMSAxLjg2LTUuNDEgMS44NiIvPjwvc3ZnPg==;" parent="SUd5e0gLXZyZvxVL9Ppd-70" vertex="1">
          <mxGeometry x="10" y="9" width="62" height="62" as="geometry" />
        </mxCell>
        <mxCell id="SUd5e0gLXZyZvxVL9Ppd-76" value="" style="endArrow=block;html=1;strokeWidth=3;endFill=0;fontSize=20;fontColor=#E42313;targetPerimeterSpacing=10;sourcePerimeterSpacing=10;strokeColor=#DA291C;rounded=1;entryX=0;entryY=0.5;entryDx=0;entryDy=0;curved=0;" parent="mhMLeF68N3GkuGjCuC4J-1" target="SUd5e0gLXZyZvxVL9Ppd-59" edge="1">
          <mxGeometry width="50" height="50" relative="1" as="geometry">
            <mxPoint x="740" y="230" as="sourcePoint" />
            <mxPoint x="570" y="330" as="targetPoint" />
            <Array as="points">
              <mxPoint x="740" y="110" />
            </Array>
          </mxGeometry>
        </mxCell>
        <mxCell id="SUd5e0gLXZyZvxVL9Ppd-77" value="" style="endArrow=block;html=1;strokeWidth=3;endFill=0;fontSize=20;fontColor=#E42313;targetPerimeterSpacing=10;sourcePerimeterSpacing=10;strokeColor=#DA291C;rounded=0;entryX=0;entryY=0.5;entryDx=0;entryDy=0;" parent="mhMLeF68N3GkuGjCuC4J-1" target="SUd5e0gLXZyZvxVL9Ppd-65" edge="1">
          <mxGeometry width="50" height="50" relative="1" as="geometry">
            <mxPoint x="710" y="230" as="sourcePoint" />
            <mxPoint x="820" y="120" as="targetPoint" />
            <Array as="points" />
          </mxGeometry>
        </mxCell>
        <mxCell id="SUd5e0gLXZyZvxVL9Ppd-78" value="" style="endArrow=block;html=1;strokeWidth=3;endFill=0;fontSize=20;fontColor=#E42313;targetPerimeterSpacing=10;sourcePerimeterSpacing=10;strokeColor=#DA291C;rounded=1;entryX=0;entryY=0.5;entryDx=0;entryDy=0;curved=0;" parent="mhMLeF68N3GkuGjCuC4J-1" target="SUd5e0gLXZyZvxVL9Ppd-71" edge="1">
          <mxGeometry width="50" height="50" relative="1" as="geometry">
            <mxPoint x="740" y="230" as="sourcePoint" />
            <mxPoint x="820" y="240" as="targetPoint" />
            <Array as="points">
              <mxPoint x="740" y="350" />
            </Array>
          </mxGeometry>
        </mxCell>
        <mxCell id="SUd5e0gLXZyZvxVL9Ppd-81" value="" style="group" parent="mhMLeF68N3GkuGjCuC4J-1" vertex="1" connectable="0">
          <mxGeometry x="20" y="190" width="200" height="80" as="geometry" />
        </mxCell>
        <mxCell id="SUd5e0gLXZyZvxVL9Ppd-82" value="" style="rounded=1;whiteSpace=wrap;html=1;strokeWidth=2;strokeColor=#7C7C7B;gradientDirection=south;arcSize=50;imageHeight=24;perimeterSpacing=10;" parent="SUd5e0gLXZyZvxVL9Ppd-81" vertex="1">
          <mxGeometry width="200" height="80" as="geometry" />
        </mxCell>
        <mxCell id="SUd5e0gLXZyZvxVL9Ppd-83" value="&lt;font face=&quot;Roboto&quot; style=&quot;font-size: 24px&quot;&gt;EIP&lt;/font&gt;" style="text;strokeColor=none;fillColor=none;align=center;verticalAlign=middle;rounded=0;sketch=0;fontFamily=Montserrat;fontSource=https%3A%2F%2Ffonts.googleapis.com%2Fcss%3Ffamily%3DMontserrat;fontStyle=1;fontSize=24;spacing=0;html=1;" parent="SUd5e0gLXZyZvxVL9Ppd-81" vertex="1">
          <mxGeometry x="80" y="25" width="110" height="21" as="geometry" />
        </mxCell>
        <mxCell id="SUd5e0gLXZyZvxVL9Ppd-84" value="" style="endArrow=none;html=1;fontSize=20;fontColor=#E42313;strokeColor=#E42313;align=center;rounded=0;" parent="SUd5e0gLXZyZvxVL9Ppd-81" edge="1">
          <mxGeometry width="50" height="50" as="geometry">
            <mxPoint x="80" y="50.75" as="sourcePoint" />
            <mxPoint x="190" y="50.75" as="targetPoint" />
          </mxGeometry>
        </mxCell>
        <mxCell id="SUd5e0gLXZyZvxVL9Ppd-85" value="" style="shape=image;verticalLabelPosition=bottom;verticalAlign=top;imageAspect=0;aspect=fixed;image=data:image/svg+xml,PHN2ZyB4bWxucz0iaHR0cDovL3d3dy53My5vcmcvMjAwMC9zdmciIHZpZXdCb3g9IjAgLTAuMDAwMjE5ODgyMTc0ODYwNjg2MDYgNjIuMzc5MTIzNjg3NzQ0MTQgNjIuMzYyNDIyOTQzMTE1MjM0IiB3aWR0aD0iNjIuMzc5MTIzNjg3NzQ0MTQiIGhlaWdodD0iNjIuMzYyNDIyOTQzMTE1MjM0Ij48ZGVmcz48c3R5bGU+LmNscy0xe2ZpbGw6I2RhMjkxYzt9LmNscy0ye2ZpbGw6I2ZmZjt9PC9zdHlsZT48L2RlZnM+PGcgaWQ9IkViZW5lXzIiIGRhdGEtbmFtZT0iRWJlbmUgMiI+PHBhdGggY2xhc3M9ImNscy0xIiBkPSJNMzEuMzE0OSw2Mi4zNjIyQTMxLjM5NDUsMzEuMzk0NSwwLDAsMSwwLDMxLjMxNDhDMCwxMi42MzI5LDE1LjU1NzEsMCwzMS4wODA3LDBhMzEuMTgxMywzMS4xODEzLDAsMCwxLC4yMzQyLDYyLjM2MjJaIi8+PHBhdGggY2xhc3M9ImNscy0yIiBkPSJNNDguNzEsNDIuNTk2NGwuMDI1Niw0LjY2MDYtNC44MTQ5LTQuODE1NWExNy4yMTA2LDE3LjIxMDYsMCwwLDAtLjAyNC0yMi41NTEybDQuNzg1LTQuNzg1Ni0uMDI1Niw0LjY2LDEuOTY3OC0xLjk2NzYtLjAyMDgtNi4wMzE0LTYuMDI2Mi0uMDE0OUw0Mi42MSwxMy43MTg0bDQuNjU5LS4wMjYzLTQuNzY3Myw0Ljc2NzNhMTcuMjk5MiwxNy4yOTkyLDAsMSwwLC4wMjcsMjUuNDE0OWw0Ljc5NDMsNC43OTQzLTQuNjU5MS0uMDI1NCwxLjk2NjgsMS45NjgxLDYuMDMxNy0uMDIxMy4wMTU0LTYuMDI1NVpNMTUuNTE4NiwzMS4xNzkyQTE1LjI5OTMsMTUuMjk5MywwLDEsMSwzMC44MTc5LDQ2LjQ3ODUsMTUuMzE2NiwxNS4zMTY2LDAsMCwxLDE1LjUxODYsMzEuMTc5MloiLz48cGF0aCBjbGFzcz0iY2xzLTIiIGQ9Ik0yMC45MDc2LDI5LjA0NDlsLTEuNDU1NS4zMzMtLjQ1NjYtMS44NSwyLjUyODgtLjcxNThoMS43NHY4LjY5NzNIMjAuOTA3NloiLz48cGF0aCBjbGFzcz0iY2xzLTIiIGQ9Ik0yOC4wMjU4LDM1LjY4MjFhNC42OSw0LjY5LDAsMCwxLTEuNjktLjI3OTMsNC45NjQ4LDQuOTY0OCwwLDAsMS0xLjMyLS43NTA5bDEuMTIyNi0xLjY1OTJhMy4yNjM2LDMuMjYzNiwwLDAsMCwuODg4Mi41MjQ0LDIuNzE1NiwyLjcxNTYsMCwwLDAsLjk2MjQuMTY2LDEuNDA2NiwxLjQwNjYsMCwwLDAsMS4xNDExLS40Nzc1LDIuMzczNSwyLjM3MzUsMCwwLDAsLjQ4NzMtMS4zMTExLDIuNTQ4NiwyLjU0ODYsMCwwLDEtLjc5MTUuNTEyMiwyLjY2NjIsMi42NjYyLDAsMCwxLTEuMDM5MS4xOTE0LDMuNDAwNywzLjQwMDcsMCwwLDEtMS4xNjI2LS4xOTE0LDIuNzQ3OSwyLjc0NzksMCwwLDEtLjkyMTMtLjU0MjksMi40MTM5LDIuNDEzOSwwLDAsMS0uNjA2LS44NTc1LDIuODUyMSwyLjg1MjEsMCwwLDEtLjIxNjgtMS4xMzQ3di0uMDI0NGEzLjEzODYsMy4xMzg2LDAsMCwxLC4yNTkzLTEuMjk1NCwyLjg5ODIsMi44OTgyLDAsMCwxLC43MjE3LS45OTMyLDMuMjM2MiwzLjIzNjIsMCwwLDEsMS4wOTE4LS42MzUzLDQuMDksNC4wOSwwLDAsMSwxLjM2OTEtLjIyMjFBMy45ODgsMy45ODgsMCwwLDEsMjkuODcsMjYuOTZhMy40NjEsMy40NjEsMCwwLDEsMS4xMDQuNzUyNSwzLjM3MTksMy4zNzE5LDAsMCwxLC43NTI1LDEuMjMzNCw1LjcwNTYsNS43MDU2LDAsMCwxLC4yODM3LDEuOTYxNHYuMDI0OWE2Ljg2NDksNi44NjQ5LDAsMCwxLS4yNTczLDEuOTM3LDQuMjkxOSw0LjI5MTksMCwwLDEtLjc2MTMsMS40OTkxLDMuNDQ1MSwzLjQ0NTEsMCwwLDEtMS4yNDcuOTY3N0E0LjA0MDksNC4wNDA5LDAsMCwxLDI4LjAyNTgsMzUuNjgyMVptLjQxMzEtNC43OTg4YTEuMTkyMywxLjE5MjMsMCwwLDAsLjg5MjYtLjMyODYsMS4wOTkyLDEuMDk5MiwwLDAsMCwuMzIyNy0uOFYyOS43M2ExLjE0NTksMS4xNDU5LDAsMCwwLS4zMzQ5LS44NDM4LDEuMjIyOSwxLjIyMjksMCwwLDAtLjkwNDgtLjMzNDQsMS4xOTMsMS4xOTMsMCwwLDAtLjg5MzEuMzI4NiwxLjE0NiwxLjE0NiwwLDAsMC0uMzIyMy44MzY5di4wMjQ5YTEuMDg2NiwxLjA4NjYsMCwwLDAsLjMzNDUuODE4M0ExLjI0OSwxLjI0OSwwLDAsMCwyOC40Mzg5LDMwLjg4MzNaIi8+PHBhdGggY2xhc3M9ImNscy0yIiBkPSJNMzIuOCwzMy43MDg1bDMuMjMyNC0yLjQ2NzhhNC40NzQ0LDQuNDc0NCwwLDAsMCwuODU2NS0uODEzOSwxLjIyNzUsMS4yMjc1LDAsMCwwLC4yNTI5LS43NC44MTIyLjgxMjIsMCwwLDAtLjI2NDYtLjY0MTYsMS4wMTY4LDEuMDE2OCwwLDAsMC0uNjk3My0uMjM0NCwxLjQzLDEuNDMsMCwwLDAtLjgyLjI2NTIsNS4wNzk0LDUuMDc5NCwwLDAsMC0uODk0NS44NDUyTDMyLjg0OSwyOC41NzYyYTcuNTU3OCw3LjU1NzgsMCwwLDEsLjcwMzItLjc5LDMuODYyMywzLjg2MjMsMCwwLDEsLjc3MTUtLjU4LDMuNTksMy41OSwwLDAsMSwuOTEzLS4zNTc5LDQuNzMyLDQuNzMyLDAsMCwxLDEuMTI4OS0uMTIzLDMuOTE2MywzLjkxNjMsMCwwLDEsMS4yODkxLjIwMzEsMy4wOTQ2LDMuMDk0NiwwLDAsMSwxLjAwNDkuNTYxNSwyLjQ5OCwyLjQ5OCwwLDAsMSwuNjU0My44NywyLjY1MjEsMi42NTIxLDAsMCwxLC4yMzQ0LDEuMTE2N3YuMDI0NGEzLjAzMDYsMy4wMzA2LDAsMCwxLS4xMy45MjUzLDIuNTg3NiwyLjU4NzYsMCwwLDEtLjM4ODcuNzU4Nyw0LjE0ODEsNC4xNDgxLDAsMCwxLS42Mjg5LjY3MjRxLS4zNzA2LjMyMDktLjg1MTYuNjY2bC0xLjQ4LDEuMDM2MmgzLjU2NTR2MS45NDkySDMyLjhaIi8+PHBhdGggY2xhc3M9ImNscy0yIiBkPSJNNDAuODY3NiwzMy4xMDRINDMuMzF2Mi40MDUzSDQwLjg2NzZaIi8+PC9nPjwvc3ZnPg==" parent="SUd5e0gLXZyZvxVL9Ppd-81" vertex="1">
          <mxGeometry x="11" y="9" width="62" height="62" as="geometry" />
        </mxCell>
        <mxCell id="SUd5e0gLXZyZvxVL9Ppd-87" value="&lt;font face=&quot;Roboto&quot; style=&quot;font-size: 24px&quot;&gt;Factory Site&amp;nbsp;&lt;/font&gt;" style="text;strokeColor=none;fillColor=none;align=center;verticalAlign=middle;rounded=0;sketch=0;fontFamily=Montserrat;fontSource=https%3A%2F%2Ffonts.googleapis.com%2Fcss%3Ffamily%3DMontserrat;fontStyle=1;fontSize=24;spacing=0;html=1;" parent="mhMLeF68N3GkuGjCuC4J-1" vertex="1">
          <mxGeometry x="65" y="390" width="110" height="21" as="geometry" />
        </mxCell>
        <mxCell id="SUd5e0gLXZyZvxVL9Ppd-88" value="" style="shape=image;aspect=fixed;image=data:image/svg+xml,PHN2ZyB4bWxucz0iaHR0cDovL3d3dy53My5vcmcvMjAwMC9zdmciIHZpZXdCb3g9IjAgMCAzNS4wMzkxIDMzLjg5OTUiPjxkZWZzPjxzdHlsZT4uY2xzLTF7ZmlsbDpub25lO308L3N0eWxlPjwvZGVmcz48ZyBpZD0iRWJlbmVfMiIgZGF0YS1uYW1lPSJFYmVuZSAyIj48cGF0aCBkPSJNMjcuOTE4LDM4LjY3ODdIMjQuMDg3NGEuNzUuNzUsMCwxLDEsMC0xLjVIMjcuOTE4YS43NS43NSwwLDAsMSwwLDEuNVoiIHRyYW5zZm9ybT0idHJhbnNsYXRlKC0xMy42NjE0IC0xMy45NDc3KSIvPjxwYXRoIGQ9Ik0zNS4yOTQ5LDM4LjY3ODdoLTMuODNhLjc1Ljc1LDAsMCwxLDAtMS41aDMuODNhLjc1Ljc1LDAsMCwxLDAsMS41WiIgdHJhbnNmb3JtPSJ0cmFuc2xhdGUoLTEzLjY2MTQgLTEzLjk0NzcpIi8+PHBhdGggZD0iTTQ1LjEyMyw0Ni40M0gxNy4yMzg4YTIuMTYyNiwyLjE2MjYsMCwwLDEtMi4xNi0yLjE2VjMzLjczNzNsMi4wNjc5LTE2LjcxMzRhMS45MjQxLDEuOTI0MSwwLDAsMSwxLjg5Ni0xLjY1ODdoLjkwMThBMS41MjIxLDEuNTIyMSwwLDAsMSwyMS40MywxNi41NzgxbDIuNTgyNSwxNC40MzA3LDQuNzEtNC4zNDIzYS43NDIzLjc0MjMsMCwwLDEsLjEwMDYtLjA3ODEsMS41MTYsMS41MTYsMCwwLDEsMi4zNCwxLjI3NTRsLjAwNzgsMy4wODIsNS40MzI2LTQuNDAwOWEuNzEwNi43MTA2LDAsMCwxLC4xMDQ1LS4wNzE4LDEuNTE1NiwxLjUxNTYsMCwwLDEsMi4yNTg4LDEuMzIyM3YzLjE1ODJsNS45Njc3LTQuNDQ2M2ExLjUzNDQsMS41MzQ0LDAsMCwxLDIuMTQ2NS41MSwxLjUxNSwxLjUxNSwwLDAsMSwuMjAxMi43NTM5VjQ0LjI3QTIuMTYyMiwyLjE2MjIsMCwwLDEsNDUuMTIzLDQ2LjQzWk0xOS45NTcsMTcuMjA0NmMtLjA0NDItLjIyNzktLjEtLjMzOTQtLjQyMzctLjMzOTRoLS40NjI1YS40NDQ2LjQ0NDYsMCwwLDAtLjQzNzUuMzU1bC0yLjA2LDE2LjYxTDE2LjU3ODYsNDQuMjdhLjY2MDYuNjYwNiwwLDAsMCwuNjYuNjZINDUuMTIzYS42NjA2LjY2MDYsMCwwLDAsLjY2LS42NlYyNy43NzFsLTUuOTY3OCw0LjQ0NzhhMS41NywxLjU3LDAsMCwxLS44MzIuMjUwOSwxLjUxNzgsMS41MTc4LDAsMCwxLTEuNTE1Ni0xLjUxNjFMMzcuNDYsMjcuNzgxN2wtNS40MzI3LDQuNDAwOWEuNjMxMi42MzEyLDAsMCwxLS4xMDQ0LjA3MTMsMS41MTYyLDEuNTE2MiwwLDAsMS0yLjI1ODgtMS4zMjE4bC0uMDA5My0zLjA4NDQtNC43MDM2LDQuMzM1OWEuNjk2OS42OTY5LDAsMCwxLS4xLjA3NzEsMS41MDE5LDEuNTAxOSwwLDAsMS0uNTE2Ni4yMTM5LDEuNTIzMiwxLjUyMzIsMCwwLDEtMS43OTQtMS4xNzcyUzIwLjAwMTMsMTcuNDMyNSwxOS45NTcsMTcuMjA0NloiIHRyYW5zZm9ybT0idHJhbnNsYXRlKC0xMy42NjE0IC0xMy45NDc3KSIvPjxwYXRoIGQ9Ik00Mi42NTkyLDM4LjY3ODdoLTMuODNhLjc1Ljc1LDAsMCwxLDAtMS41aDMuODNhLjc1Ljc1LDAsMCwxLDAsMS41WiIgdHJhbnNmb3JtPSJ0cmFuc2xhdGUoLTEzLjY2MTQgLTEzLjk0NzcpIi8+PC9nPjxnIGlkPSJFYmVuZV80IiBkYXRhLW5hbWU9IkViZW5lIDQiPjxyZWN0IGNsYXNzPSJjbHMtMSIgd2lkdGg9IjM1LjAzOTEiIGhlaWdodD0iMzMuODk5NSIvPjwvZz48L3N2Zz4=;" parent="mhMLeF68N3GkuGjCuC4J-1" vertex="1">
          <mxGeometry x="50" y="320" width="62" height="60" as="geometry" />
        </mxCell>
        <mxCell id="mhMLeF68N3GkuGjCuC4J-2" value="" style="group" parent="mhMLeF68N3GkuGjCuC4J-3" vertex="1" connectable="0">
          <mxGeometry width="400" height="300" as="geometry" />
        </mxCell>
        <mxCell id="zK9kSR2WIkN9pUXpnWrE-1" value="" style="rounded=1;whiteSpace=wrap;html=1;sketch=0;fontFamily=Montserrat;fontSource=https%3A%2F%2Ffonts.googleapis.com%2Fcss%3Ffamily%3DMontserrat;fontSize=20;align=center;dashed=1;strokeWidth=4;glass=0;arcSize=15;strokeColor=#ADADAC;fillColor=#D6D6D6;perimeterSpacing=0;" parent="mhMLeF68N3GkuGjCuC4J-2" vertex="1">
          <mxGeometry width="400" height="300" as="geometry" />
        </mxCell>
        <mxCell id="zK9kSR2WIkN9pUXpnWrE-3" value="&lt;font face=&quot;Roboto&quot; style=&quot;font-size: 24px&quot;&gt;Office Site&lt;/font&gt;" style="text;strokeColor=none;fillColor=none;align=center;verticalAlign=middle;rounded=0;sketch=0;fontFamily=Montserrat;fontSource=https%3A%2F%2Ffonts.googleapis.com%2Fcss%3Ffamily%3DMontserrat;fontStyle=1;fontSize=24;spacing=0;html=1;" parent="mhMLeF68N3GkuGjCuC4J-2" vertex="1">
          <mxGeometry x="50.650000000000006" y="240" width="110" height="21" as="geometry" />
        </mxCell>
        <mxCell id="zK9kSR2WIkN9pUXpnWrE-6" value="" style="shape=image;aspect=fixed;image=data:image/svg+xml,PHN2ZyB4bWxucz0iaHR0cDovL3d3dy53My5vcmcvMjAwMC9zdmciIHZpZXdCb3g9IjAgMCAyOS4zNDk5IDQxLjE4NDYiPjxkZWZzPjxzdHlsZT4uY2xzLTF7ZmlsbDpub25lO308L3N0eWxlPjwvZGVmcz48ZyBpZD0iRWJlbmVfMiIgZGF0YS1uYW1lPSJFYmVuZSAyIj48cGF0aCBkPSJNNDIuNDYxNiwyNi40MjU4SDM5LjA3MjlWMTguODQ4NmEyLjAzODMsMi4wMzgzLDAsMCwwLTIuMDM2MS0yLjAzNjFoLTUuMVYxMi43NTU5YS43NS43NSwwLDAsMC0xLjUsMHY0LjA1NjZIMjUuMTUyYTIuMDM4NywyLjAzODcsMCwwLDAtMi4wMzYxLDIuMDM2MXY3LjU3NzJIMTkuOTAxMWExLjk4LDEuOTgsMCwwLDAtMS45NzgxLDEuOTc3NVY0OC4zNzg5YTEuOTgsMS45OCwwLDAsMCwxLjk3ODEsMS45Nzc1aDIyLjU2YTEuOTc5MywxLjk3OTMsMCwwLDAsMS45Nzc2LTEuOTc3NVYyOC40MDMzQTEuOTgsMS45OCwwLDAsMCw0Mi40NjE2LDI2LjQyNThaTTI0LjYxNTksMTguODQ4NmEuNTM3LjUzNywwLDAsMSwuNTM2MS0uNTM2MUgzNy4wMzY4YS41MzY3LjUzNjcsMCwwLDEsLjUzNjEuNTM2MXY3LjU3NzJIMjQuNjE1OVptMTguMzIzMywyOS41M2EuNDc3Ni40Nzc2LDAsMCwxLS40Nzc2LjQ3NzVoLTIyLjU2YS40NzguNDc4LDAsMCwxLS40NzgxLS40Nzc1VjI4LjQwMzNhLjQ3ODQuNDc4NCwwLDAsMSwuNDc4MS0uNDc3NWgyMi41NmEuNDc3OS40Nzc5LDAsMCwxLC40Nzc2LjQ3NzVaIiB0cmFuc2Zvcm09InRyYW5zbGF0ZSgtMTYuNTA2MSAtMTAuNTg4OSkiLz48cGF0aCBkPSJNMzMuMDkyNSwzMS4yMzI0aC0zLjk5YS43NS43NSwwLDAsMCwwLDEuNWgzLjk5YS43NS43NSwwLDAsMCwwLTEuNVoiIHRyYW5zZm9ybT0idHJhbnNsYXRlKC0xNi41MDYxIC0xMC41ODg5KSIvPjxwYXRoIGQ9Ik0yMS44Nzc2LDMyLjczMjRoMy45NzY2YS43NS43NSwwLDAsMCwwLTEuNUgyMS44Nzc2YS43NS43NSwwLDAsMCwwLDEuNVoiIHRyYW5zZm9ybT0idHJhbnNsYXRlKC0xNi41MDYxIC0xMC41ODg5KSIvPjxwYXRoIGQ9Ik0zMy4wOTI1LDM2LjAzOTFIMjkuMDc4OGEuNzUuNzUsMCwxLDAsMCwxLjVoNC4wMTM3YS43NS43NSwwLDAsMCwwLTEuNVoiIHRyYW5zZm9ybT0idHJhbnNsYXRlKC0xNi41MDYxIC0xMC41ODg5KSIvPjxwYXRoIGQ9Ik0yMS44Nzc2LDM3LjUzOTFoNC4wMTEzYS43NS43NSwwLDAsMCwwLTEuNUgyMS44Nzc2YS43NS43NSwwLDAsMCwwLDEuNVoiIHRyYW5zZm9ybT0idHJhbnNsYXRlKC0xNi41MDYxIC0xMC41ODg5KSIvPjxwYXRoIGQ9Ik0zMy4wOTI1LDQwLjg0NTdIMjkuMDEwOWEuNzUuNzUsMCwwLDAsMCwxLjVoNC4wODE2YS43NS43NSwwLDAsMCwwLTEuNVoiIHRyYW5zZm9ybT0idHJhbnNsYXRlKC0xNi41MDYxIC0xMC41ODg5KSIvPjxwYXRoIGQ9Ik00MC4zNTEzLDMxLjIzMjRoLTMuOTlhLjc1Ljc1LDAsMCwwLDAsMS41aDMuOTlhLjc1Ljc1LDAsMCwwLDAtMS41WiIgdHJhbnNmb3JtPSJ0cmFuc2xhdGUoLTE2LjUwNjEgLTEwLjU4ODkpIi8+PHBhdGggZD0iTTQwLjM1MTMsMzYuMDM5MUgzNi4zMzc2YS43NS43NSwwLDAsMCwwLDEuNWg0LjAxMzdhLjc1Ljc1LDAsMCwwLDAtMS41WiIgdHJhbnNmb3JtPSJ0cmFuc2xhdGUoLTE2LjUwNjEgLTEwLjU4ODkpIi8+PHBhdGggZD0iTTQwLjM1MTMsNDAuODQ1N0gzNi4yNjkyYS43NS43NSwwLDAsMCwwLDEuNWg0LjA4MjFhLjc1Ljc1LDAsMCwwLDAtMS41WiIgdHJhbnNmb3JtPSJ0cmFuc2xhdGUoLTE2LjUwNjEgLTEwLjU4ODkpIi8+PHBhdGggZD0iTTI1LjkxMTgsNDAuODQ1N0gyMS44Nzc2YS43NS43NSwwLDAsMCwwLDEuNWg0LjAzNDJhLjc1Ljc1LDAsMCwwLDAtMS41WiIgdHJhbnNmb3JtPSJ0cmFuc2xhdGUoLTE2LjUwNjEgLTEwLjU4ODkpIi8+PHBhdGggZD0iTTMzLjE3LDIxLjU5MjhIMjkuMTkzMWEuNzUuNzUsMCwwLDAsMCwxLjVIMzMuMTdhLjc1Ljc1LDAsMCwwLDAtMS41WiIgdHJhbnNmb3JtPSJ0cmFuc2xhdGUoLTE2LjUwNjEgLTEwLjU4ODkpIi8+PC9nPjxnIGlkPSJFYmVuZV80IiBkYXRhLW5hbWU9IkViZW5lIDQiPjxyZWN0IGNsYXNzPSJjbHMtMSIgd2lkdGg9IjI5LjM0OTkiIGhlaWdodD0iNDEuMTg0NiIvPjwvZz48L3N2Zz4=;" parent="mhMLeF68N3GkuGjCuC4J-2" vertex="1">
          <mxGeometry x="50.650000000000006" y="158" width="51.35" height="72" as="geometry" />
        </mxCell>
        <mxCell id="zK9kSR2WIkN9pUXpnWrE-7" value="" style="shape=image;verticalLabelPosition=bottom;verticalAlign=top;imageAspect=0;aspect=fixed;image=data:image/svg+xml,PHN2ZyB4bWxucz0iaHR0cDovL3d3dy53My5vcmcvMjAwMC9zdmciIHZpZXdCb3g9IjAgMCAyNC42Njk5MDA4OTQxNjUwNCAzNS41MTUzMDA3NTA3MzI0MiIgd2lkdGg9IjI0LjY2OTkwMDg5NDE2NTA0IiBoZWlnaHQ9IjM1LjUxNTMwMDc1MDczMjQyIj48ZGVmcz48c3R5bGU+LmNscy0xe2ZpbGw6bm9uZTt9PC9zdHlsZT48L2RlZnM+PGcgaWQ9IkViZW5lXzIiIGRhdGEtbmFtZT0iRWJlbmUgMiI+PHBhdGggZD0iTTM5LjExNTIsNDcuNTIxNUgyMy4yNDcxYTIuOTg2NiwyLjk4NjYsMCwwLDEtMi45ODM5LTIuOTgzNFYxNy44MjQ3QTIuOTg3NSwyLjk4NzUsMCwwLDEsMjMuMjQ3MSwxNC44NEgzOS4xMTUyYTIuOTg3MSwyLjk4NzEsMCwwLDEsMi45ODM0LDIuOTg0NFY0NC41MzgxQTIuOTg2MiwyLjk4NjIsMCwwLDEsMzkuMTE1Miw0Ny41MjE1Wk0yMy4yNDcxLDE2LjM0YTEuNDg1OCwxLjQ4NTgsMCwwLDAtMS40ODM5LDEuNDg0NFY0NC41MzgxYTEuNDg1LDEuNDg1LDAsMCwwLDEuNDgzOSwxLjQ4MzRIMzkuMTE1MmExLjQ4NDYsMS40ODQ2LDAsMCwwLDEuNDgzNC0xLjQ4MzRWMTcuODI0N0ExLjQ4NTQsMS40ODU0LDAsMCwwLDM5LjExNTIsMTYuMzRaIiB0cmFuc2Zvcm09InRyYW5zbGF0ZSgtMTguODQ1OSAtMTMuNDIzMykiLz48cGF0aCBkPSJNMzQuNTcsMjAuMDMxMkgyNy43OTJhLjc1Ljc1LDAsMCwxLDAtMS41SDM0LjU3YS43NS43NSwwLDAsMSwwLDEuNVoiIHRyYW5zZm9ybT0idHJhbnNsYXRlKC0xOC44NDU5IC0xMy40MjMzKSIvPjxwYXRoIGQ9Ik0zMS4xODEyLDQzLjUwNDlhMS4wODg5LDEuMDg4OSwwLDEsMSwxLjA4OTMtMS4wODg5QTEuMDksMS4wOSwwLDAsMSwzMS4xODEyLDQzLjUwNDlaIiB0cmFuc2Zvcm09InRyYW5zbGF0ZSgtMTguODQ1OSAtMTMuNDIzMykiLz48L2c+PGcgaWQ9IkViZW5lXzMiIGRhdGEtbmFtZT0iRWJlbmUgMyI+PHJlY3QgY2xhc3M9ImNscy0xIiB3aWR0aD0iMjQuNjY5OSIgaGVpZ2h0PSIzNS41MTUzIi8+PC9nPjwvc3ZnPg==" parent="mhMLeF68N3GkuGjCuC4J-2" vertex="1">
          <mxGeometry x="159.9999999999999" y="44.00000000000006" width="38.2" height="55" as="geometry" />
        </mxCell>
        <mxCell id="zK9kSR2WIkN9pUXpnWrE-8" value="" style="shape=image;verticalLabelPosition=bottom;verticalAlign=top;imageAspect=0;aspect=fixed;image=data:image/svg+xml,PHN2ZyB4bWxucz0iaHR0cDovL3d3dy53My5vcmcvMjAwMC9zdmciIHZpZXdCb3g9IjAgMCAzNi44MTYzOTg2MjA2MDU0NyAzNi44MTYzOTg2MjA2MDU0NyIgd2lkdGg9IjM2LjgxNjM5ODYyMDYwNTQ3IiBoZWlnaHQ9IjM2LjgxNjM5ODYyMDYwNTQ3Ij48ZGVmcz48c3R5bGU+LmNscy0xe2ZpbGw6bm9uZTt9PC9zdHlsZT48L2RlZnM+PGcgaWQ9IkViZW5lXzIiIGRhdGEtbmFtZT0iRWJlbmUgMiI+PHBhdGggZD0iTTI4Ljc5NDQsNDEuMDIzNGEuNzUuNzUsMCwwLDAsMCwxLjVoMi44MjQzYS43NS43NSwwLDEsMCwwLTEuNVoiIHRyYW5zZm9ybT0idHJhbnNsYXRlKC0xNi43NDE1IC0xMi43NzMyKSIvPjxwYXRoIGQ9Ik01MS45OSw0Ni45NzI3bC00LjA4NTktNS40NDkzVjM1LjMzNWMwLTIuNTM2Mi0yLjUzNDItNC42ODM2LTUuMjE2OC02Ljk1NzZsLS40MzI2LS4zNjc2VjE3LjA1ODFBMi44NzE3LDIuODcxNywwLDAsMCwzOS4zODY3LDE0LjE5SDIxLjAyNDRhMi44ODM3LDIuODgzNywwLDAsMC0yLjg2NjIsMi44NjgyVjQyLjQ4MzRhMi44OTYyLDIuODk2MiwwLDAsMCwyLjg2ODcsMi44NzExSDM3Ljk3NDZhLjc1Ljc1LDAsMSwwLDAtMS41SDIxLjAzMjdhMS4zODk0LDEuMzg5NCwwLDAsMS0xLjM3NDUtMS4zNzVWMTcuMDYwNUExLjM3ODMsMS4zNzgzLDAsMCwxLDIxLjAyNjksMTUuNjloMTguMzZhMS4zNywxLjM3LDAsMCwxLDEuMzY4MiwxLjM2ODJWMzQuMzEyNmwtLjQ4NTQtLjQ4NTVhMi4yMjYsMi4yMjYsMCwwLDAtLjgzODgtLjUxOTNWMTguNDcwN2ExLjQ1OCwxLjQ1OCwwLDAsMC0xLjQ1NjEtMS40NTY1SDIyLjQzOWExLjQ1OCwxLjQ1OCwwLDAsMC0xLjQ1NjEsMS40NTY1VjM4LjI0MjJhMS40NTc5LDEuNDU3OSwwLDAsMCwxLjQ1NjEsMS40NTZIMzkuMzY0MmwxLjM5MDcsMS42NDM2VjQyLjQ4YzAsMS41OTQ3LDIuNDg5Miw0Ljc4ODEsMi45ODgzLDUuNDEyMWEuNzUuNzUsMCwxLDAsMS4xNzE4LS45Mzc1Yy0xLjI3OTMtMS42LTIuNjYtMy43NjU2LTIuNjYtNC40NzQ2VjQxLjA2NzRhLjc0NjMuNzQ2MywwLDAsMC0uMTc3OC0uNDg0NGwtMy44NTY0LTQuNTU1N2ExLjAyMjQsMS4wMjI0LDAsMCwxLS4wMzIyLTEuMTczOC43NTA2Ljc1MDYsMCwwLDEsMS4wMjA1LjAzNTJsMy4xNzc3LDMuMTc3N2EuNzUuNzUsMCwxLDAsMS4wNjA2LTEuMDYwNWwtMS4xOTI0LTEuMTkyOHYtNS44MzRjMi4xMjIxLDEuODA5Myw0LjE0OTQsMy42NTgzLDQuMTQ5NCw1LjM1NTl2Ni40Mzg0YS43NDkxLjc0OTEsMCwwLDAsLjE1LjQ1TDUwLjc5MSw0Ny44NzNhLjc1Ljc1LDAsMSwwLDEuMTk5Mi0uOVptLTEzLjg5MTgtOC43Ny0xNS42MTU1LjA0LS4wNDM5LTE5LjcyOCwxNS40OTE3LS4wNDM1djE0LjgzN2EyLjIyNTcsMi4yMjU3LDAsMCwwLS44NC41MTk0LjkyODUuOTI4NSwwLDAsMC0uMDY5My4wODExLDIuNTM2MSwyLjUzNjEsMCwwLDAsLjAyNzMsMy4wNTM3WiIgdHJhbnNmb3JtPSJ0cmFuc2xhdGUoLTE2Ljc0MTUgLTEyLjc3MzIpIi8+PHBhdGggZD0iTTM0LjQ0MzQsMzEuMTM3MkgyNS45N2EuNzUuNzUsMCwxLDAsMCwxLjQ5OTVoOC40NzM3YS43NS43NSwwLDEsMCwwLTEuNDk5NVoiIHRyYW5zZm9ybT0idHJhbnNsYXRlKC0xNi43NDE1IC0xMi43NzMyKSIvPjxwYXRoIGQ9Ik0zNC40NDM0LDI2LjlIMjUuOTdhLjc1Ljc1LDAsMCwwLDAsMS41aDguNDczN2EuNzUuNzUsMCwwLDAsMC0xLjVaIiB0cmFuc2Zvcm09InRyYW5zbGF0ZSgtMTYuNzQxNSAtMTIuNzczMikiLz48cGF0aCBkPSJNMjUuOTcsMjQuMTYzNmg4LjQ3MzJhLjc1Ljc1LDAsMSwwLDAtMS41SDI1Ljk3YS43NS43NSwwLDAsMCwwLDEuNVoiIHRyYW5zZm9ybT0idHJhbnNsYXRlKC0xNi43NDE1IC0xMi43NzMyKSIvPjwvZz48ZyBpZD0iRWJlbmVfNCIgZGF0YS1uYW1lPSJFYmVuZSA0Ij48cmVjdCBjbGFzcz0iY2xzLTEiIHdpZHRoPSIzNi44MTY0IiBoZWlnaHQ9IjM2LjgxNjQiLz48L2c+PC9zdmc+" parent="mhMLeF68N3GkuGjCuC4J-2" vertex="1">
          <mxGeometry x="300" y="39.999999999999886" width="62" height="62" as="geometry" />
        </mxCell>
        <mxCell id="zK9kSR2WIkN9pUXpnWrE-9" value="" style="shape=image;verticalLabelPosition=bottom;verticalAlign=top;imageAspect=0;aspect=fixed;image=data:image/svg+xml,PHN2ZyB4bWxucz0iaHR0cDovL3d3dy53My5vcmcvMjAwMC9zdmciIHZpZXdCb3g9IjAgMCAzOS43NjcyMDA0Njk5NzA3IDM4LjIyODAwMDY0MDg2OTE0IiB3aWR0aD0iMzkuNzY3MjAwNDY5OTcwNyIgaGVpZ2h0PSIzOC4yMjgwMDA2NDA4NjkxNCI+PGRlZnM+PHN0eWxlPi5jbHMtMXtmaWxsOm5vbmU7fTwvc3R5bGU+PC9kZWZzPjxnIGlkPSJFYmVuZV8yIiBkYXRhLW5hbWU9IkViZW5lIDIiPjxwYXRoIGQ9Ik00OS40OTIyLDQ1LjI0OHYtLjAwMDlsLTMuNDg1NC05Ljg2OTJBNS4wODQ2LDUuMDg0NiwwLDAsMCw0NC4wNDEsMzIuODVhMi42NjMsMi42NjMsMCwwLDAsLjk4NDQtMi4wNTcyVjE2LjE2MzZhMi42ODIsMi42ODIsMCwwLDAtMi42Nzg3LTIuNjc4N0gyMC4wMTQ2YTIuNjgxNywyLjY4MTcsMCwwLDAtMi42Nzg3LDIuNjc4N1YzMC43OTNBMi42NjI5LDIuNjYyOSwwLDAsMCwxOC4zMiwzMi44NSw1LjA5LDUuMDksMCwwLDAsMTYuMzUzLDM1LjM3N2wtMy40ODM5LDkuODcxYTIuNzI0MSwyLjcyNDEsMCwwLDAsMi41Njg5LDMuNjI5SDQ2LjkyMzhhMi43MjQ0LDIuNzI0NCwwLDAsMCwyLjU2ODQtMy42MjlaTTIwLjAxNDYsMzEuOTcxN2ExLjE4LDEuMTgsMCwwLDEtMS4xNzg3LTEuMTc4N1YxNi4xNjM2YTEuMTgsMS4xOCwwLDAsMSwxLjE3ODctMS4xNzg3SDQyLjM0NjdhMS4xOCwxLjE4LDAsMCwxLDEuMTc4NywxLjE3ODdWMzAuNzkzYTEuMTgsMS4xOCwwLDAsMS0xLjE3ODcsMS4xNzg3SDIwLjAxNDZaTTI2LjgzLDQ3LjM3N2wuODc4OS0yLjYzNjhhLjcwNzMuNzA3MywwLDAsMSwuNjcyNC0uNDg0M2g1LjZhLjcwNTcuNzA1NywwLDAsMSwuNjcxOC40ODQzbC44OCwyLjYzNjhabTIwLjUwMTUtLjA2OTRhMS4yMzUzLDEuMjM1MywwLDAsMS0uNDA3My4wNjk0aC05LjgxbC0xLjAzNzktMy4xMTE0YTIuMjA0NywyLjIwNDcsMCwwLDAtMi4wOTU3LTEuNTFoLTUuNmEyLjIwNDEsMi4yMDQxLDAsMCwwLTIuMDk1MywxLjUxTDI1LjI0ODUsNDcuMzc3aC05LjgxYTEuMjIzOSwxLjIyMzksMCwwLDEtMS4xNTQzLTEuNjNsMy40ODM0LTkuODdhMy42MTE2LDMuNjExNiwwLDAsMSwzLjQtMi40MDUzSDQxLjE5NDNhMy42MDY2LDMuNjA2NiwwLDAsMSwzLjM5ODUsMi40MDUzbDMuNDg1Myw5Ljg2OTFBMS4yMjY2LDEuMjI2NiwwLDAsMSw0Ny4zMzExLDQ3LjMwNzZaIiB0cmFuc2Zvcm09InRyYW5zbGF0ZSgtMTEuMjk3MSAtMTIuMDY2OSkiLz48cGF0aCBkPSJNMjIuNywzNi41OTM4SDIxLjE2YS43NS43NSwwLDAsMCwwLDEuNUgyMi43YS43NS43NSwwLDAsMCwwLTEuNVoiIHRyYW5zZm9ybT0idHJhbnNsYXRlKC0xMS4yOTcxIC0xMi4wNjY5KSIvPjxwYXRoIGQ9Ik0yNS43ODEyLDM4LjA5MzhoMS41NDA2YS43NS43NSwwLDAsMCwwLTEuNUgyNS43ODEyYS43NS43NSwwLDAsMCwwLDEuNVoiIHRyYW5zZm9ybT0idHJhbnNsYXRlKC0xMS4yOTcxIC0xMi4wNjY5KSIvPjxwYXRoIGQ9Ik0zNS4wMjQ0LDM4LjA5MzhoMS41NDFhLjc1Ljc1LDAsMCwwLDAtMS41aC0xLjU0MWEuNzUuNzUsMCwwLDAsMCwxLjVaIiB0cmFuc2Zvcm09InRyYW5zbGF0ZSgtMTEuMjk3MSAtMTIuMDY2OSkiLz48cGF0aCBkPSJNNDEuOTM2NSwzNy4zNDM4YS43NS43NSwwLDAsMC0uNzUtLjc1aC0xLjU0YS43NS43NSwwLDAsMCwwLDEuNWgxLjU0QS43NS43NSwwLDAsMCw0MS45MzY1LDM3LjM0MzhaIiB0cmFuc2Zvcm09InRyYW5zbGF0ZSgtMTEuMjk3MSAtMTIuMDY2OSkiLz48cGF0aCBkPSJNMzAuNDAyOCwzOC4wOTM4aDEuNTQwNmEuNzUuNzUsMCwwLDAsMC0xLjVIMzAuNDAyOGEuNzUuNzUsMCwwLDAsMCwxLjVaIiB0cmFuc2Zvcm09InRyYW5zbGF0ZSgtMTEuMjk3MSAtMTIuMDY2OSkiLz48cGF0aCBkPSJNMjEuMTYsMzkuNjc0OEgxOS42MTkxYS43NS43NSwwLDEsMCwwLDEuNUgyMS4xNmEuNzUuNzUsMCwwLDAsMC0xLjVaIiB0cmFuc2Zvcm09InRyYW5zbGF0ZSgtMTEuMjk3MSAtMTIuMDY2OSkiLz48cGF0aCBkPSJNMzguMTA1NSwzOS42NzQ4SDI0LjI0MDdhLjc1Ljc1LDAsMSwwLDAsMS41SDM4LjEwNTVhLjc1Ljc1LDAsMCwwLDAtMS41WiIgdHJhbnNmb3JtPSJ0cmFuc2xhdGUoLTExLjI5NzEgLTEyLjA2NjkpIi8+PHBhdGggZD0iTTQyLjcyNzUsMzkuNjc0OGgtMS41NDFhLjc1Ljc1LDAsMCwwLDAsMS41aDEuNTQxYS43NS43NSwwLDAsMCwwLTEuNVoiIHRyYW5zZm9ybT0idHJhbnNsYXRlKC0xMS4yOTcxIC0xMi4wNjY5KSIvPjwvZz48ZyBpZD0iRWJlbmVfNCIgZGF0YS1uYW1lPSJFYmVuZSA0Ij48cmVjdCBjbGFzcz0iY2xzLTEiIHdpZHRoPSIzOS43NjcyIiBoZWlnaHQ9IjM4LjIyOCIvPjwvZz48L3N2Zz4=" parent="mhMLeF68N3GkuGjCuC4J-2" vertex="1">
          <mxGeometry x="220" y="41.5499999999999" width="62" height="58.9" as="geometry" />
        </mxCell>
        <mxCell id="zK9kSR2WIkN9pUXpnWrE-10" value="&lt;font face=&quot;Roboto&quot; style=&quot;font-size: 24px; font-weight: normal;&quot;&gt;User Access&lt;/font&gt;" style="text;strokeColor=none;fillColor=none;align=center;verticalAlign=middle;rounded=0;sketch=0;fontFamily=Montserrat;fontSource=https%3A%2F%2Ffonts.googleapis.com%2Fcss%3Ffamily%3DMontserrat;fontStyle=1;fontSize=24;spacing=0;html=1;" parent="mhMLeF68N3GkuGjCuC4J-2" vertex="1">
          <mxGeometry x="196" y="120" width="110" height="21" as="geometry" />
        </mxCell>
        <mxCell id="wgDSZRqRZ50xkBtg6eMg-1" value="" style="shape=image;verticalLabelPosition=bottom;labelBackgroundColor=default;verticalAlign=top;aspect=fixed;imageAspect=0;editableCssRules=.*;image=data:image/svg+xml,PHN2ZyB4bWxucz0iaHR0cDovL3d3dy53My5vcmcvMjAwMC9zdmciIHZpZXdCb3g9IjAgMCA2Mi4zNjE5OTk1MTE3MTg3NSA2Mi4zNjE5OTk1MTE3MTg3NSIgd2lkdGg9IjYyLjM2MTk5OTUxMTcxODc1IiBoZWlnaHQ9IjYyLjM2MTk5OTUxMTcxODc1Ij48cGF0aCBzdHlsZT0iZmlsbDojZGEyOTFjIiBkPSJNMzEuMzE1IDYyLjM2MkMxMy40ODMgNjIuMzYyIDAgNDcuNTkgMCAzMS4zMTUgMCAxMi42MzMgMTUuNTU3IDAgMzEuMDggMGMxOC42MDIgMCAzMS4yODIgMTUuMzQgMzEuMjgyIDMwLjk0NyAwIDE5LjA1LTE1LjY1NyAzMS40MTUtMzEuMDQ3IDMxLjQxNSIvPjxwYXRoIHN0eWxlPSJmaWxsOiNmZmYiIGQ9Ik0zOS42NTQgNDIuOTJIMTYuMTIyYTEgMSAwIDAgMS0xLTFjMC01LjE2NiAzLjE4Ni05LjgwNSA3LjgzMi0xMS43NjZhNy42NSA3LjY1IDAgMCAxLTIuNzM2LTUuODc1YzAtMi4wNy44MTItNC4wMSAyLjI4Ni01LjQ2M1MyNS45MjIgMTYuNTY4IDI4IDE2LjYxYzQuMDkuMDYgNy40OCAzLjQzNiA3LjU1NiA3LjUyNmE3LjYzIDcuNjMgMCAwIDEtMi43MzMgNi4wMmM0LjY0NiAxLjk2MiA3LjgzIDYuNiA3LjgzIDExLjc2NWExIDEgMCAwIDEtMSAxbS0yMi4xNjgtMkgzOC4yOWMuMTY4IDAgLjMwMy0uMTUuMjgyLS4zMTYtLjU1Ny00LjQ0Ni0zLjg5Ni04LjIwMS04LjM0Ny05LjE4N2ExIDEgMCAwIDEtLjE2OC0xLjljLjcyNi0uMzAyIDEuNC0uNzM2IDEuOTE4LTEuMzI3IDMuNzEyLTQuMjQxLjI4Ny05LjUxOS00LjAwMy05LjU4YTUuNjUgNS42NSAwIDAgMC00LjA2NSAxLjYzYy0xLjgzNiAxLjgxLTIuMjgyIDQuNjQzLS44MDkgNy4yMzUuNTY3Ljk5OCAxLjU4MyAxLjU5IDIuNjM1IDIuMDQ5YTEgMSAwIDAgMS0uMTgzIDEuODkzYy00LjQ1Ljk4Ni03Ljc4OSA0Ljc0MS04LjM0NiA5LjE4N2EuMjg1LjI4NSAwIDAgMCAuMjgyLjMxNlptMjkuMTMtMi45NThoLTIuNzE5YS42MjYuNjI2IDAgMCAxIDAtMS4yNWgxLjc0MWMuMTcxIDAgLjMxLS4xNTMuMjg2LS4zMjItLjM5NS0yLjc4Mi0yLjUwMS01LjExOC01LjI5Ni01LjczOGEuNjI2LjYyNiAwIDAgMS0uMTA1LTEuMTg3IDMuNjEgMy42MSAwIDAgMCAyLjIzLTMuMzM5IDMuNjE4IDMuNjE4IDAgMCAwLTQuMjE0LTMuNTYyLjYyNS42MjUgMCAwIDEtLjIxNS0xLjIzMSA0Ljg3IDQuODcgMCAwIDEgNS42OCA0Ljc5NCA0Ljg1IDQuODUgMCAwIDEtMS43NSAzLjczNmMyLjk2NSAxLjI0NCA0Ljk5NyA0LjIwNSA0Ljk4NyA3LjQ5OS0uMDAxLjMzNS0uMjkuNi0uNjI1LjYiLz48L3N2Zz4=;" parent="mhMLeF68N3GkuGjCuC4J-2" vertex="1">
          <mxGeometry x="211" y="181" width="80" height="80" as="geometry" />
        </mxCell>
        <mxCell id="zK9kSR2WIkN9pUXpnWrE-11" value="" style="endArrow=block;html=1;strokeWidth=3;endFill=0;fontSize=20;fontColor=#E42313;targetPerimeterSpacing=10;sourcePerimeterSpacing=10;strokeColor=#7C7C7B;dashed=1;rounded=0;" parent="mhMLeF68N3GkuGjCuC4J-3" source="wgDSZRqRZ50xkBtg6eMg-1" target="SUd5e0gLXZyZvxVL9Ppd-82" edge="1">
          <mxGeometry width="50" height="50" relative="1" as="geometry">
            <mxPoint x="233.32289156626507" y="271" as="sourcePoint" />
            <mxPoint x="340" y="300" as="targetPoint" />
            <Array as="points" />
          </mxGeometry>
        </mxCell>
      </root>
    </mxGraphModel>
  </diagram>
</mxfile>
